<svg version="1.1" viewBox="0.0 0.0 960.0 720.0" fill="none" stroke="none" stroke-linecap="square" stroke-miterlimit="10" xmlns:xlink="http://www.w3.org/1999/xlink" xmlns="http://www.w3.org/2000/svg"><clipPath id="p.0"><path d="m0 0l960.0 0l0 720.0l-960.0 0l0 -720.0z" clip-rule="nonzero"/></clipPath><g clip-path="url(#p.0)"><path fill="#000000" fill-opacity="0.0" d="m0 0l960.0 0l0 720.0l-960.0 0z" fill-rule="evenodd"/><path fill="#cfe2f3" d="m432.31497 40.007874l158.9921 0l0 45.007874l-158.9921 0z" fill-rule="evenodd"/><path stroke="#000000" stroke-width="1.0" stroke-linejoin="round" stroke-linecap="butt" d="m432.31497 40.007874l158.9921 0l0 45.007874l-158.9921 0z" fill-rule="evenodd"/><path fill="#000000" d="m449.4556 48.009933q-0.21875 -0.359375 -1.53125 -0.359375q-1.734375 0 -2.640625 1.171875q-0.890625 1.171875 -0.890625 3.390625q0 4.609375 3.453125 4.609375q0.046875 0 0.484375 0q0.453125 0 0.84375 -0.109375q0.390625 -0.125 0.453125 -0.25q0.078125 -0.140625 0.078125 -0.421875l0 -1.484375l1.90625 0.125l0 3.234375q-1.453125 0.765625 -3.6875 0.765625q-2.859375 0 -4.359375 -1.609375q-1.5 -1.609375 -1.5 -4.78125q0 -1.75 0.5 -3.046875q0.5 -1.3125 1.359375 -2.046875q1.6875 -1.390625 4.0 -1.390625q1.859375 0 3.5 0.765625l0 3.171875l-1.90625 0.125l0 -1.453125q0 -0.28125 -0.0625 -0.40625zm7.9966736 9.0625q2.03125 0 2.03125 -3.28125q0 -1.671875 -0.453125 -2.515625q-0.453125 -0.859375 -1.53125 -0.859375q-1.078125 0 -1.578125 0.828125q-0.5 0.8125 -0.5 2.21875q0 2.640625 0.96875 3.3125q0.421875 0.296875 1.0625 0.296875zm-4.296875 -3.34375q0 -1.375 0.40625 -2.390625q0.421875 -1.015625 1.109375 -1.5625q1.328125 -1.0 2.9375 -1.0q1.109375 0 1.875 0.359375q0.78125 0.359375 1.21875 0.84375q0.4375 0.46875 0.75 1.375q0.3125 0.90625 0.3125 2.140625q0 2.5625 -1.25 3.890625q-1.25 1.328125 -3.203125 1.328125q-1.953125 0 -3.0625 -1.25q-1.09375 -1.265625 -1.09375 -3.734375zm9.74115 -3.1875l0 -1.5l3.15625 0l0 1.21875q0.484375 -0.6875 1.28125 -1.078125q0.8125 -0.40625 1.734375 -0.40625q1.421875 0 2.1875 0.8125q0.78125 0.796875 0.78125 2.421875l0 4.875l1.0625 0.046875l0 1.5l-4.4375 0l0 -1.421875l0.625 -0.046875q0.265625 -0.046875 0.390625 -0.15625q0.140625 -0.125 0.140625 -0.46875l0 -3.84375q0 -1.015625 -0.3125 -1.515625q-0.3125 -0.5 -1.203125 -0.5q-0.890625 0 -1.421875 0.5625q-0.515625 0.5625 -0.515625 1.328125l0 4.515625l1.0625 0.046875l0 1.5l-4.4375 0l0 -1.421875l0.625 -0.046875q0.28125 -0.046875 0.40625 -0.15625q0.125 -0.125 0.125 -0.46875l0 -5.15625q0 -0.5625 -0.46875 -0.578125l-0.78125 -0.0625zm13.381256 -3.46875l1.21875 0l0 1.96875l2.46875 0l-0.1875 1.578125l-2.28125 0l0 4.90625q0 0.8125 0.296875 1.140625q0.296875 0.328125 0.921875 0.328125q0.625 0 1.25 -0.390625l0.5625 1.4375q-0.9375 0.65625 -2.359375 0.65625q-0.84375 0 -1.421875 -0.21875q-0.578125 -0.21875 -0.859375 -0.46875q-0.28125 -0.265625 -0.4375 -0.765625q-0.140625 -0.515625 -0.171875 -0.796875q-0.015625 -0.296875 -0.015625 -0.84375l0 -4.984375l-1.3125 0l0.1875 -1.359375q0.875 -0.078125 1.3125 -0.625q0.453125 -0.5625 0.828125 -1.5625zm13.345886 2.34375l0 6.9375q0 0.3125 0.09375 0.421875q0.109375 0.109375 0.359375 0.125l0.609375 0.03125l0 1.5l-2.96875 0l0 -1.078125l-0.0625 -0.015625q-0.9375 1.34375 -2.546875 1.34375q-1.90625 0 -2.828125 -1.21875q-0.90625 -1.21875 -0.90625 -3.328125q0 -2.53125 1.21875 -3.9375q1.234375 -1.421875 3.703125 -1.421875q1.578125 0 3.328125 0.640625zm-2.171875 6.046875l0 -4.828125q-0.515625 -0.25 -1.4375 -0.25q-1.25 0 -1.8125 1.015625q-0.5625 1.0 -0.5625 2.671875q0 3.015625 1.953125 3.015625q0.8125 0 1.328125 -0.484375q0.53125 -0.5 0.53125 -1.140625zm7.7499695 -6.421875l0 7.84375l1.0625 0.046875l0 1.5l-4.453125 0l0 -1.421875l0.625 -0.046875q0.53125 -0.0625 0.53125 -0.609375l0 -5.171875q0 -0.328125 -0.109375 -0.4375q-0.09375 -0.109375 -0.34375 -0.109375l-0.65625 -0.03125l0 -1.5625l3.34375 0zm-2.359375 -1.59375q-0.390625 -0.390625 -0.390625 -0.984375q0 -0.609375 0.390625 -1.0q0.390625 -0.40625 1.015625 -0.40625q0.640625 0 1.046875 0.40625q0.40625 0.390625 0.40625 1.0q0 0.59375 -0.40625 0.984375q-0.40625 0.375 -1.046875 0.375q-0.625 0 -1.015625 -0.375zm4.3816223 3.09375l0 -1.5l3.15625 0l0 1.21875q0.484375 -0.6875 1.28125 -1.078125q0.8125 -0.40625 1.734375 -0.40625q1.421875 0 2.1875 0.8125q0.78125 0.796875 0.78125 2.421875l0 4.875l1.0625 0.046875l0 1.5l-4.4375 0l0 -1.421875l0.625 -0.046875q0.265625 -0.046875 0.390625 -0.15625q0.140625 -0.125 0.140625 -0.46875l0 -3.84375q0 -1.015625 -0.3125 -1.515625q-0.3125 -0.5 -1.203125 -0.5q-0.890625 0 -1.421875 0.5625q-0.515625 0.5625 -0.515625 1.328125l0 4.515625l1.0625 0.046875l0 1.5l-4.4375 0l0 -1.421875l0.625 -0.046875q0.28125 -0.046875 0.40625 -0.15625q0.125 -0.125 0.125 -0.46875l0 -5.15625q0 -0.5625 -0.46875 -0.578125l-0.78125 -0.0625zm15.990631 -1.765625q1.40625 0 2.21875 0.6875q0.828125 0.671875 0.828125 1.890625q0 0.828125 -0.359375 1.453125q-0.359375 0.625 -0.890625 0.984375q-0.515625 0.34375 -1.25 0.578125q-1.25 0.375 -2.828125 0.375q0.0625 0.984375 0.625 1.59375q0.5625 0.59375 1.71875 0.59375q1.15625 0 2.3125 -0.8125l0.703125 1.515625q-0.375 0.328125 -1.265625 0.6875q-0.875 0.359375 -2.015625 0.359375q-2.28125 0 -3.34375 -1.265625q-1.0625 -1.265625 -1.0625 -3.453125q0 -2.203125 1.203125 -3.6875q1.21875 -1.5 3.40625 -1.5zm-0.859375 4.265625q0.6875 -0.125 1.265625 -0.546875q0.578125 -0.421875 0.578125 -1.0q0 -1.140625 -1.109375 -1.140625q-1.046875 0 -1.609375 0.828125q-0.5625 0.828125 -0.609375 1.984375q0.8125 -0.015625 1.484375 -0.125zm6.357788 3.296875l0 -5.15625q0 -0.3125 -0.109375 -0.421875q-0.09375 -0.125 -0.34375 -0.140625l-0.796875 -0.0625l0 -1.515625l3.15625 0l0 1.40625q0.34375 -0.734375 1.046875 -1.203125q0.703125 -0.46875 1.625 -0.46875q0.9375 0 1.765625 0.40625l0 2.78125l-1.734375 0.125l0 -0.859375q0 -0.375 -0.1875 -0.46875q-0.203125 -0.09375 -0.5 -0.09375q-0.75 0 -1.21875 0.53125q-0.46875 0.53125 -0.46875 1.359375l0 4.328125l1.609375 0.078125l0 1.46875l-5.0 0l0 -1.421875l0.625 -0.046875q0.28125 -0.046875 0.40625 -0.15625q0.125 -0.125 0.125 -0.46875z" fill-rule="nonzero"/><path fill="#000000" d="m445.06497 83.71306q-2.46875 -4.171875 -2.46875 -8.375q0 -4.203125 2.46875 -8.5l1.765625 0.8125q-2.03125 4.015625 -2.03125 7.578125q0 3.5625 2.015625 7.640625l-1.75 0.84375zm11.737701 -5.46875l0 -3.21875l-5.28125 0l0 3.765625l1.078125 0.0625l0 1.578125l-4.515625 0l0 -1.515625l0.625 -0.046875q0.53125 -0.0625 0.53125 -0.53125l0 -8.671875l-1.0625 -0.0625l0 -1.578125l4.515625 0l0 1.515625l-0.609375 0.046875q-0.296875 0.046875 -0.4375 0.171875q-0.125 0.109375 -0.125 0.453125l0 2.890625l5.28125 0l0 -3.4375l-1.0625 -0.0625l0 -1.578125l4.515625 0l0 1.515625l-0.625 0.046875q-0.53125 0.0625 -0.53125 0.59375l0 8.609375l1.0625 0.0625l0 1.578125l-4.515625 0l0 -1.515625l0.609375 -0.046875q0.28125 -0.046875 0.40625 -0.15625q0.140625 -0.125 0.140625 -0.46875zm8.033264 0.09375l0 -8.46875l-1.453125 0q-0.421875 0 -0.421875 0.578125l0 0.875l-1.90625 -0.125l0 -3.171875l9.75 0l0 3.171875l-1.890625 0.125l0 -0.875q0 -0.3125 -0.09375 -0.4375q-0.09375 -0.140625 -0.453125 -0.140625l-1.265625 0l0 8.921875l1.46875 0.0625l0 1.578125l-5.265625 0l0 -1.515625l1.0 -0.046875q0.53125 -0.0625 0.53125 -0.53125zm10.879395 -10.3125l3.171875 8.4375l0.03125 0l3.203125 -8.4375l3.6875 0l0 1.515625l-0.609375 0.046875q-0.5625 0.0625 -0.546875 0.65625l0.46875 8.546875l1.15625 0.0625l0 1.578125l-4.5 0l0 -1.515625l0.671875 -0.046875q0.5 -0.046875 0.484375 -0.484375l-0.34375 -6.59375l-0.046875 0l-2.875 7.453125l-1.765625 0l-2.84375 -7.375l-0.03125 0l-0.375 6.921875l1.21875 0.0625l0 1.578125l-4.40625 0l0 -1.515625l0.671875 -0.046875q0.421875 -0.046875 0.46875 -0.515625l0.5 -8.671875l-1.140625 -0.078125l0 -1.578125l3.75 0zm20.387451 12.40625l-8.859375 0l0 -1.515625l0.625 -0.046875q0.53125 -0.0625 0.53125 -0.53125l0 -8.671875l-1.0625 -0.0625l0 -1.578125l4.5 0l0 1.515625l-0.609375 0.046875q-0.546875 0.0625 -0.546875 0.59375l0 8.328125l3.09375 0q0.265625 0 0.34375 -0.140625q0.09375 -0.140625 0.09375 -0.453125l0 -1.3125l1.890625 0.140625l0 3.6875zm10.065277 0l-8.859375 0l0 -1.515625l0.609375 -0.046875q0.546875 -0.0625 0.546875 -0.53125l0 -8.671875l-1.0625 -0.0625l0 -1.578125l8.53125 0l0 3.09375l-1.890625 0.140625l0 -0.75q0 -0.328125 -0.09375 -0.453125q-0.09375 -0.125 -0.453125 -0.125l-2.765625 0l0 3.1875l4.3125 0l0 1.90625l-4.3125 0l0 3.484375l3.015625 0q0.328125 0 0.421875 -0.140625q0.09375 -0.140625 0.09375 -0.453125l0 -0.9375l1.90625 0.125l0 3.328125zm4.695404 -13.296875l0 11.75l1.0625 0.046875l0 1.5l-4.4375 0l0 -1.421875l0.609375 -0.046875q0.546875 -0.0625 0.546875 -0.609375l0 -9.1875q0 -0.40625 -0.46875 -0.453125l-0.65625 -0.03125l0 -1.546875l3.34375 0zm6.9033203 3.640625q1.40625 0 2.21875 0.6875q0.828125 0.671875 0.828125 1.890625q0 0.828125 -0.359375 1.453125q-0.359375 0.625 -0.890625 0.984375q-0.515625 0.34375 -1.25 0.578125q-1.25 0.375 -2.828125 0.375q0.0625 0.984375 0.625 1.59375q0.5625 0.59375 1.71875 0.59375q1.15625 0 2.3125 -0.8125l0.703125 1.515625q-0.375 0.328125 -1.265625 0.6875q-0.875 0.359375 -2.015625 0.359375q-2.28125 0 -3.34375 -1.265625q-1.0625 -1.265625 -1.0625 -3.453125q0 -2.203125 1.203125 -3.6875q1.21875 -1.5 3.40625 -1.5zm-0.859375 4.265625q0.6875 -0.125 1.265625 -0.546875q0.578125 -0.421875 0.578125 -1.0q0 -1.140625 -1.109375 -1.140625q-1.046875 0 -1.609375 0.828125q-0.5625 0.828125 -0.609375 1.984375q0.8125 -0.015625 1.484375 -0.125zm5.092102 -2.484375l0 -1.515625l3.15625 0l0 1.21875q1.046875 -1.484375 2.859375 -1.484375q1.828125 0 2.453125 1.484375q1.046875 -1.484375 2.84375 -1.484375q1.34375 0 2.0625 0.8125q0.734375 0.796875 0.734375 2.421875l0 4.875l1.0625 0.046875l0 1.5l-4.4375 0l0 -1.421875l0.609375 -0.046875q0.28125 -0.046875 0.40625 -0.15625q0.125 -0.125 0.140625 -0.453125l0 -3.859375q0 -1.015625 -0.234375 -1.515625q-0.234375 -0.5 -1.09375 -0.5q-0.859375 0 -1.3125 0.53125q-0.453125 0.515625 -0.453125 1.390625l0 4.484375l1.015625 0.046875l0 1.5l-4.40625 0l0 -1.421875l0.625 -0.046875q0.28125 -0.046875 0.40625 -0.15625q0.140625 -0.125 0.140625 -0.46875l0 -3.84375q0 -1.015625 -0.234375 -1.515625q-0.234375 -0.5 -1.109375 -0.5q-0.859375 0 -1.3125 0.546875q-0.453125 0.546875 -0.453125 1.34375l0 4.515625l1.015625 0.046875l0 1.5l-4.40625 0l0 -1.421875l0.609375 -0.046875q0.28125 -0.046875 0.40625 -0.15625q0.140625 -0.125 0.140625 -0.46875l0.015625 0l0 -5.140625q0 -0.328125 -0.109375 -0.4375q-0.09375 -0.125 -0.359375 -0.140625l-0.78125 -0.0625zm20.953186 -1.78125q1.40625 0 2.21875 0.6875q0.828125 0.671875 0.828125 1.890625q0 0.828125 -0.359375 1.453125q-0.359375 0.625 -0.890625 0.984375q-0.515625 0.34375 -1.25 0.578125q-1.25 0.375 -2.828125 0.375q0.0625 0.984375 0.625 1.59375q0.5625 0.59375 1.71875 0.59375q1.15625 0 2.3125 -0.8125l0.703125 1.515625q-0.375 0.328125 -1.265625 0.6875q-0.875 0.359375 -2.015625 0.359375q-2.28125 0 -3.34375 -1.265625q-1.0625 -1.265625 -1.0625 -3.453125q0 -2.203125 1.203125 -3.6875q1.21875 -1.5 3.40625 -1.5zm-0.859375 4.265625q0.6875 -0.125 1.265625 -0.546875q0.578125 -0.421875 0.578125 -1.0q0 -1.140625 -1.109375 -1.140625q-1.046875 0 -1.609375 0.828125q-0.5625 0.828125 -0.609375 1.984375q0.8125 -0.015625 1.484375 -0.125zm5.092163 -2.5l0 -1.5l3.15625 0l0 1.21875q0.484375 -0.6875 1.28125 -1.078125q0.8125 -0.40625 1.734375 -0.40625q1.421875 0 2.1875 0.8125q0.78125 0.796875 0.78125 2.421875l0 4.875l1.0625 0.046875l0 1.5l-4.4375 0l0 -1.421875l0.625 -0.046875q0.265625 -0.046875 0.390625 -0.15625q0.140625 -0.125 0.140625 -0.46875l0 -3.84375q0 -1.015625 -0.3125 -1.515625q-0.3125 -0.5 -1.203125 -0.5q-0.890625 0 -1.421875 0.5625q-0.515625 0.5625 -0.515625 1.328125l0 4.515625l1.0625 0.046875l0 1.5l-4.4375 0l0 -1.421875l0.625 -0.046875q0.28125 -0.046875 0.40625 -0.15625q0.125 -0.125 0.125 -0.46875l0 -5.15625q0 -0.5625 -0.46875 -0.578125l-0.78125 -0.0625zm13.381226 -3.46875l1.21875 0l0 1.96875l2.46875 0l-0.1875 1.578125l-2.28125 0l0 4.90625q0 0.8125 0.296875 1.140625q0.296875 0.328125 0.921875 0.328125q0.625 0 1.25 -0.390625l0.5625 1.4375q-0.9375 0.65625 -2.359375 0.65625q-0.84375 0 -1.421875 -0.21875q-0.578125 -0.21875 -0.859375 -0.46875q-0.28125 -0.265625 -0.4375 -0.765625q-0.140625 -0.515625 -0.171875 -0.796875q-0.015625 -0.296875 -0.015625 -0.84375l0 -4.984375l-1.3125 0l0.1875 -1.359375q0.875 -0.078125 1.3125 -0.625q0.453125 -0.5625 0.828125 -1.5625zm6.7678223 -2.28125q2.46875 4.1875 2.46875 8.390625q0 4.1875 -2.46875 8.5l-1.765625 -0.828125q2.03125 -4.0 2.03125 -7.5625q0 -3.578125 -2.015625 -7.65625l1.75 -0.84375z" fill-rule="nonzero"/><path fill="#000000" fill-opacity="0.0" d="m512.126 85.01575l-0.62991333 44.97638" fill-rule="evenodd"/><path stroke="#000000" stroke-width="1.0" stroke-linejoin="round" stroke-linecap="butt" d="m512.126 85.01575l-0.5458679 38.976967" fill-rule="evenodd"/><path fill="#000000" stroke="#000000" stroke-width="1.0" stroke-linecap="butt" d="m509.92853 123.96958l1.5880127 4.5607834l1.7150879 -4.5145187z" fill-rule="evenodd"/><path fill="#cfe2f3" d="m400.0 129.99213l222.99213 0l0 45.007874l-222.99213 0z" fill-rule="evenodd"/><path stroke="#000000" stroke-width="1.0" stroke-linejoin="round" stroke-linecap="butt" d="m400.0 129.99213l222.99213 0l0 45.007874l-222.99213 0z" fill-rule="evenodd"/><path fill="#000000" d="m444.34998 151.44731q-0.4375 -0.171875 -1.078125 -0.171875q-0.640625 0 -1.03125 0.296875q-0.375 0.28125 -0.375 0.703125q0 0.421875 0.140625 0.65625q0.140625 0.234375 0.4375 0.40625q0.46875 0.234375 1.125 0.421875q0.65625 0.171875 0.96875 0.28125q0.3125 0.09375 0.78125 0.34375q0.484375 0.234375 0.734375 0.515625q0.65625 0.6875 0.65625 1.765625q0 1.40625 -1.015625 2.203125q-1.015625 0.796875 -2.59375 0.796875q-2.265625 0 -3.421875 -0.578125l0 -2.59375l1.671875 -0.140625l0 0.890625q0 0.828125 1.5625 0.828125q1.578125 0 1.578125 -1.140625q0 -0.40625 -0.28125 -0.671875q-0.265625 -0.265625 -0.53125 -0.34375q-0.25 -0.09375 -0.625 -0.1875q-0.359375 -0.09375 -0.703125 -0.1875q-0.34375 -0.09375 -0.75 -0.25q-0.40625 -0.171875 -0.890625 -0.46875q-0.9375 -0.609375 -0.9375 -2.046875q0 -1.453125 1.015625 -2.234375q1.03125 -0.78125 2.578125 -0.78125q1.5625 0 3.09375 0.734375l0 2.25l-1.671875 0.125l0 -0.78125q0 -0.46875 -0.4375 -0.640625zm4.663971 5.875l0 -9.078125q0 -0.296875 -0.109375 -0.40625q-0.09375 -0.125 -0.359375 -0.140625l-0.640625 -0.03125l0 -1.546875l3.3125 0l0 5.015625q0.96875 -1.375 2.71875 -1.375q1.421875 0 2.1875 0.8125q0.78125 0.796875 0.78125 2.421875l0 4.875l1.0625 0.046875l0 1.5l-4.4375 0l0 -1.421875l0.625 -0.046875q0.265625 -0.046875 0.390625 -0.15625q0.140625 -0.125 0.140625 -0.46875l0 -3.84375q0 -0.96875 -0.3125 -1.484375q-0.296875 -0.53125 -1.1875 -0.53125q-0.890625 0 -1.421875 0.5625q-0.53125 0.546875 -0.53125 1.328125l0 4.515625l1.0625 0.046875l0 1.5l-4.4375 0l0 -1.421875l0.625 -0.046875q0.28125 -0.046875 0.40625 -0.15625q0.125 -0.125 0.125 -0.46875zm18.443756 -6.921875l0 6.9375q0 0.3125 0.09375 0.421875q0.109375 0.109375 0.359375 0.125l0.609375 0.03125l0 1.5l-2.96875 0l0 -1.078125l-0.0625 -0.015625q-0.9375 1.34375 -2.546875 1.34375q-1.90625 0 -2.828125 -1.21875q-0.90625 -1.21875 -0.90625 -3.328125q0 -2.53125 1.21875 -3.9375q1.234375 -1.421875 3.703125 -1.421875q1.578125 0 3.328125 0.640625zm-2.171875 6.046875l0 -4.828125q-0.515625 -0.25 -1.4375 -0.25q-1.25 0 -1.8125 1.015625q-0.5625 1.0 -0.5625 2.671875q0 3.015625 1.953125 3.015625q0.8125 0 1.328125 -0.484375q0.53125 -0.5 0.53125 -1.140625zm5.5155945 0.875l0 -9.078125q0 -0.296875 -0.109375 -0.40625q-0.09375 -0.125 -0.34375 -0.140625l-0.65625 -0.03125l0 -1.546875l3.3125 0l0 8.078125q1.03125 -0.09375 1.796875 -0.640625q0.765625 -0.546875 1.046875 -1.421875q0.046875 -0.1875 0.046875 -0.296875q0 -0.3125 -0.34375 -0.3125l-0.71875 -0.03125l0 -1.46875l3.859375 0l0 1.515625l-0.890625 0.046875q-0.234375 1.890625 -1.640625 3.0l1.828125 3.28125l1.140625 0.046875l0 1.5l-2.71875 0l-2.125 -3.875q-0.625 0.15625 -1.28125 0.25l0 2.078125l0.03125 0l1.0625 0.046875l0 1.5l-4.453125 0l0 -1.421875l0.625 -0.046875q0.28125 -0.046875 0.40625 -0.15625q0.125 -0.125 0.125 -0.46875zm17.60727 -6.921875l0 6.9375q0 0.3125 0.09375 0.421875q0.109375 0.109375 0.359375 0.125l0.609375 0.03125l0 1.5l-2.96875 0l0 -1.078125l-0.0625 -0.015625q-0.9375 1.34375 -2.546875 1.34375q-1.90625 0 -2.828125 -1.21875q-0.90625 -1.21875 -0.90625 -3.328125q0 -2.53125 1.21875 -3.9375q1.234375 -1.421875 3.703125 -1.421875q1.578125 0 3.328125 0.640625zm-2.171875 6.046875l0 -4.828125q-0.515625 -0.25 -1.4375 -0.25q-1.25 0 -1.8125 1.015625q-0.5625 1.0 -0.5625 2.671875q0 3.015625 1.953125 3.015625q0.8125 0 1.328125 -0.484375q0.53125 -0.5 0.53125 -1.140625zm5.859314 3.25q-0.65625 0 -1.015625 -0.359375q-0.34375 -0.375 -0.34375 -0.953125q0 -0.59375 0.359375 -0.96875q0.359375 -0.390625 0.984375 -0.390625q0.625 0 1.0 0.375q0.375 0.359375 0.375 0.953125q0 0.578125 -0.359375 0.96875q-0.34375 0.375 -1.0 0.375zm5.8569336 -10.5l0 6.1875q0 1.3125 0.625 1.84375q0.625 0.53125 1.78125 0.53125q1.171875 0 1.8125 -0.578125q0.65625 -0.578125 0.65625 -1.703125l0 -6.828125l-1.09375 -0.0625l0 -1.578125l4.421875 0l0 1.515625l-0.609375 0.046875q-0.546875 0.0625 -0.546875 0.5625l0 6.65625q0 1.8125 -1.265625 2.84375q-1.265625 1.03125 -3.515625 1.03125q-2.234375 0 -3.375 -1.0q-1.140625 -1.0 -1.140625 -3.171875l0 -6.84375l-1.09375 -0.0625l0 -1.578125l4.515625 0l0 1.515625l-0.609375 0.046875q-0.296875 0.046875 -0.4375 0.171875q-0.125 0.109375 -0.125 0.453125zm10.294495 8.03125l0 -8.578125l-1.0625 -0.0625l0 -1.578125l4.515625 0l0 1.515625l-0.609375 0.046875q-0.546875 0.0625 -0.546875 0.59375l0 8.609375l1.0625 0.0625l0 1.578125l-4.515625 0l0 -1.515625l0.625 -0.046875q0.28125 -0.046875 0.40625 -0.15625q0.125 -0.125 0.125 -0.46875zm6.086792 2.46875q-0.65625 0 -1.015625 -0.359375q-0.34375 -0.375 -0.34375 -0.953125q0 -0.59375 0.359375 -0.96875q0.359375 -0.390625 0.984375 -0.390625q0.625 0 1.0 0.375q0.375 0.359375 0.375 0.953125q0 0.578125 -0.359375 0.96875q-0.34375 0.375 -1.0 0.375zm8.544434 -12.90625q2.21875 0 3.703125 1.5625q1.5 1.5625 1.5 4.78125q0 3.21875 -1.484375 4.875q-1.484375 1.65625 -4.015625 1.65625q-2.515625 0 -3.953125 -1.640625q-1.4375 -1.65625 -1.4375 -4.78125q0 -1.71875 0.5 -3.015625q0.5 -1.296875 1.328125 -2.0q1.65625 -1.4375 3.859375 -1.4375zm-3.359375 6.359375q0 4.625 3.203125 4.625q1.71875 0 2.40625 -1.421875q0.640625 -1.25 0.640625 -3.0625q0 -1.625 -0.5625 -2.984375q-0.3125 -0.734375 -0.96875 -1.15625q-0.640625 -0.4375 -1.671875 -0.4375q-1.015625 0 -1.75 0.671875q-0.734375 0.671875 -1.015625 1.625q-0.28125 0.9375 -0.28125 2.140625zm15.590942 -3.125l3.9375 0l0 1.46875l-0.578125 0.03125q-0.375 0.03125 -0.5 0.453125l-2.40625 7.4375l-2.859375 0l-2.609375 -7.421875q-0.09375 -0.265625 -0.203125 -0.359375q-0.09375 -0.09375 -0.328125 -0.109375l-0.546875 -0.03125l0 -1.46875l4.390625 0l0 1.5l-1.140625 0.0625l1.921875 6.125l0.03125 0l1.859375 -6.125l-0.96875 -0.0625l0 -1.5zm9.425781 -0.265625q1.40625 0 2.21875 0.6875q0.828125 0.671875 0.828125 1.890625q0 0.828125 -0.359375 1.453125q-0.359375 0.625 -0.890625 0.984375q-0.515625 0.34375 -1.25 0.578125q-1.25 0.375 -2.828125 0.375q0.0625 0.984375 0.625 1.59375q0.5625 0.59375 1.71875 0.59375q1.15625 0 2.3125 -0.8125l0.703125 1.515625q-0.375 0.328125 -1.265625 0.6875q-0.875 0.359375 -2.015625 0.359375q-2.28125 0 -3.34375 -1.265625q-1.0625 -1.265625 -1.0625 -3.453125q0 -2.203125 1.203125 -3.6875q1.21875 -1.5 3.40625 -1.5zm-0.859375 4.265625q0.6875 -0.125 1.265625 -0.546875q0.578125 -0.421875 0.578125 -1.0q0 -1.140625 -1.109375 -1.140625q-1.046875 0 -1.609375 0.828125q-0.5625 0.828125 -0.609375 1.984375q0.8125 -0.015625 1.484375 -0.125zm6.357788 3.296875l0 -5.15625q0 -0.3125 -0.109375 -0.421875q-0.09375 -0.125 -0.34375 -0.140625l-0.796875 -0.0625l0 -1.515625l3.15625 0l0 1.40625q0.34375 -0.734375 1.046875 -1.203125q0.703125 -0.46875 1.625 -0.46875q0.9375 0 1.765625 0.40625l0 2.78125l-1.734375 0.125l0 -0.859375q0 -0.375 -0.1875 -0.46875q-0.203125 -0.09375 -0.5 -0.09375q-0.75 0 -1.21875 0.53125q-0.46875 0.53125 -0.46875 1.359375l0 4.328125l1.609375 0.078125l0 1.46875l-5.0 0l0 -1.421875l0.625 -0.046875q0.28125 -0.046875 0.40625 -0.15625q0.125 -0.125 0.125 -0.46875zm10.806641 -11.203125l0 11.75l1.0625 0.046875l0 1.5l-4.4375 0l0 -1.421875l0.609375 -0.046875q0.546875 -0.0625 0.546875 -0.609375l0 -9.1875q0 -0.40625 -0.46875 -0.453125l-0.65625 -0.03125l0 -1.546875l3.34375 0zm10.606445 4.28125l0 6.9375q0 0.3125 0.09375 0.421875q0.109375 0.109375 0.359375 0.125l0.609375 0.03125l0 1.5l-2.96875 0l0 -1.078125l-0.0625 -0.015625q-0.9375 1.34375 -2.546875 1.34375q-1.90625 0 -2.828125 -1.21875q-0.90625 -1.21875 -0.90625 -3.328125q0 -2.53125 1.21875 -3.9375q1.234375 -1.421875 3.703125 -1.421875q1.578125 0 3.328125 0.640625zm-2.171875 6.046875l0 -4.828125q-0.515625 -0.25 -1.4375 -0.25q-1.25 0 -1.8125 1.015625q-0.5625 1.0 -0.5625 2.671875q0 3.015625 1.953125 3.015625q0.8125 0 1.328125 -0.484375q0.53125 -0.5 0.53125 -1.140625zm11.234375 2.609375l0 -1.40625q-1.03125 1.453125 -3.03125 1.453125q-2.890625 0 -2.890625 -3.234375l0 -3.75q0 -0.5 -0.46875 -0.515625l-0.59375 -0.046875l0 -1.53125l3.28125 0l0 5.359375q0 0.984375 0.28125 1.5q0.28125 0.5 1.15625 0.5q0.875 0 1.40625 -0.53125q0.53125 -0.546875 0.53125 -1.3125l0 -3.375q0 -0.328125 -0.109375 -0.4375q-0.09375 -0.125 -0.34375 -0.125l-0.609375 -0.046875l0 -1.53125l3.296875 0l0 9.03125q0 2.265625 -1.09375 3.3125q-1.09375 1.046875 -3.3125 1.046875q-2.203125 0 -3.4375 -0.625l0 -2.59375l1.78125 -0.140625l0 0.890625q0 0.5 0.453125 0.671875q0.46875 0.1875 1.296875 0.1875q2.40625 0 2.40625 -2.75z" fill-rule="nonzero"/><path fill="#cfe2f3" d="m540.2598 396.99213l166.74017 0l0 45.007874l-166.74017 0z" fill-rule="evenodd"/><path stroke="#000000" stroke-width="1.0" stroke-linejoin="round" stroke-linecap="butt" d="m540.2598 396.99213l166.74017 0l0 45.007874l-166.74017 0z" fill-rule="evenodd"/><path fill="#000000" d="m565.17236 419.58792q-0.375 -0.140625 -0.921875 -0.140625q-0.546875 0 -0.875 0.25q-0.328125 0.234375 -0.328125 0.59375q0 0.359375 0.109375 0.5625q0.125 0.203125 0.390625 0.34375q0.390625 0.203125 0.953125 0.359375q0.5625 0.15625 0.828125 0.25q0.28125 0.078125 0.6875 0.296875q0.40625 0.203125 0.609375 0.4375q0.5625 0.59375 0.5625 1.515625q0 1.203125 -0.875 1.890625q-0.875 0.671875 -2.21875 0.671875q-1.9375 0 -2.9375 -0.484375l0 -2.234375l1.4375 -0.109375l0 0.765625q0 0.703125 1.34375 0.703125q1.34375 0 1.34375 -0.96875q0 -0.359375 -0.234375 -0.578125q-0.21875 -0.21875 -0.453125 -0.296875q-0.21875 -0.09375 -0.53125 -0.171875q-0.3125 -0.078125 -0.609375 -0.15625q-0.296875 -0.078125 -0.640625 -0.21875q-0.34375 -0.140625 -0.765625 -0.390625q-0.8125 -0.53125 -0.8125 -1.765625q0 -1.234375 0.875 -1.90625q0.890625 -0.671875 2.21875 -0.671875q1.34375 0 2.65625 0.640625l0 1.90625l-1.4375 0.125l0 -0.671875q0 -0.40625 -0.375 -0.546875zm3.9972534 5.03125l0 -7.78125q0 -0.265625 -0.09375 -0.359375q-0.078125 -0.09375 -0.296875 -0.109375l-0.5625 -0.03125l0 -1.328125l2.84375 0l0 4.296875q0.828125 -1.171875 2.34375 -1.171875q1.203125 0 1.859375 0.703125q0.671875 0.6875 0.671875 2.078125l0 4.171875l0.921875 0.046875l0 1.28125l-3.8125 0l0 -1.21875l0.53125 -0.046875q0.234375 -0.03125 0.34375 -0.125q0.125 -0.109375 0.125 -0.40625l0 -3.296875q0 -0.828125 -0.265625 -1.265625q-0.265625 -0.453125 -1.03125 -0.453125q-0.765625 0 -1.21875 0.46875q-0.453125 0.46875 -0.453125 1.140625l0 3.875l0.90625 0.046875l0 1.28125l-3.796875 0l0 -1.21875l0.53125 -0.046875q0.234375 -0.03125 0.34375 -0.125q0.109375 -0.109375 0.109375 -0.40625zm15.818787 -5.9375l0 5.953125q0 0.265625 0.078125 0.359375q0.09375 0.09375 0.3125 0.109375l0.515625 0.03125l0 1.28125l-2.546875 0l0 -0.921875l-0.046875 -0.015625q-0.796875 1.140625 -2.1875 1.140625q-1.640625 0 -2.421875 -1.03125q-0.78125 -1.046875 -0.78125 -2.859375q0 -2.171875 1.046875 -3.375q1.0625 -1.21875 3.171875 -1.21875q1.359375 0 2.859375 0.546875zm-1.859375 5.1875l0 -4.140625q-0.453125 -0.203125 -1.234375 -0.203125q-1.078125 0 -1.5625 0.859375q-0.46875 0.859375 -0.46875 2.28125q0 2.59375 1.65625 2.59375q0.703125 0 1.15625 -0.421875q0.453125 -0.421875 0.453125 -0.96875zm4.7282715 0.75l0 -7.78125q0 -0.265625 -0.09375 -0.359375q-0.078125 -0.09375 -0.296875 -0.109375l-0.5625 -0.03125l0 -1.328125l2.84375 0l0 6.921875q0.875 -0.078125 1.53125 -0.53125q0.65625 -0.46875 0.90625 -1.21875q0.046875 -0.171875 0.046875 -0.265625q0 -0.265625 -0.3125 -0.265625l-0.609375 -0.03125l0 -1.25l3.3125 0l0 1.296875l-0.765625 0.03125q-0.203125 1.625 -1.40625 2.578125l1.578125 2.8125l0.96875 0.046875l0 1.28125l-2.34375 0l-1.8125 -3.328125q-0.53125 0.140625 -1.09375 0.21875l0 1.78125l0.015625 0l0.921875 0.046875l0 1.28125l-3.8125 0l0 -1.21875l0.53125 -0.046875q0.234375 -0.03125 0.34375 -0.125q0.109375 -0.109375 0.109375 -0.40625zm15.099121 -5.9375l0 5.953125q0 0.265625 0.078125 0.359375q0.09375 0.09375 0.3125 0.109375l0.515625 0.03125l0 1.28125l-2.546875 0l0 -0.921875l-0.046875 -0.015625q-0.796875 1.140625 -2.1875 1.140625q-1.640625 0 -2.421875 -1.03125q-0.78125 -1.046875 -0.78125 -2.859375q0 -2.171875 1.046875 -3.375q1.0625 -1.21875 3.171875 -1.21875q1.359375 0 2.859375 0.546875zm-1.859375 5.1875l0 -4.140625q-0.453125 -0.203125 -1.234375 -0.203125q-1.078125 0 -1.5625 0.859375q-0.46875 0.859375 -0.46875 2.28125q0 2.59375 1.65625 2.59375q0.703125 0 1.15625 -0.421875q0.453125 -0.421875 0.453125 -0.96875zm5.0251465 2.78125q-0.5625 0 -0.875 -0.3125q-0.296875 -0.3125 -0.296875 -0.8125q0 -0.5 0.3125 -0.828125q0.3125 -0.328125 0.84375 -0.328125q0.546875 0 0.859375 0.3125q0.3125 0.3125 0.3125 0.8125q0 0.5 -0.296875 0.828125q-0.296875 0.328125 -0.859375 0.328125zm5.022278 -9.0l0 5.3125q0 1.109375 0.53125 1.578125q0.53125 0.453125 1.53125 0.453125q1.0 0 1.546875 -0.5q0.5625 -0.5 0.5625 -1.453125l0 -5.859375l-0.921875 -0.046875l0 -1.359375l3.78125 0l0 1.296875l-0.515625 0.046875q-0.46875 0.046875 -0.46875 0.484375l0 5.703125q0 1.5625 -1.09375 2.4375q-1.078125 0.875 -3.0 0.875q-1.921875 0 -2.90625 -0.84375q-0.984375 -0.859375 -0.984375 -2.71875l0 -5.875l-0.921875 -0.046875l0 -1.359375l3.859375 0l0 1.296875l-0.515625 0.046875q-0.265625 0.03125 -0.375 0.140625q-0.109375 0.09375 -0.109375 0.390625zm8.825256 6.890625l0 -7.359375l-0.90625 -0.046875l0 -1.359375l3.875 0l0 1.296875l-0.53125 0.046875q-0.46875 0.046875 -0.46875 0.515625l0 7.375l0.921875 0.046875l0 1.359375l-3.875 0l0 -1.296875l0.53125 -0.046875q0.234375 -0.03125 0.34375 -0.125q0.109375 -0.109375 0.109375 -0.40625zm5.2244873 2.109375q-0.5625 0 -0.875 -0.3125q-0.296875 -0.3125 -0.296875 -0.8125q0 -0.5 0.3125 -0.828125q0.3125 -0.328125 0.84375 -0.328125q0.546875 0 0.859375 0.3125q0.3125 0.3125 0.3125 0.8125q0 0.5 -0.296875 0.828125q-0.296875 0.328125 -0.859375 0.328125zm8.772278 -9.171875q-0.171875 -0.3125 -1.3125 -0.3125q-1.484375 0 -2.25 1.015625q-0.765625 1.0 -0.765625 2.90625q0 3.953125 2.953125 3.953125q0.046875 0 0.421875 0q0.390625 0 0.71875 -0.09375q0.34375 -0.109375 0.40625 -0.21875q0.0625 -0.125 0.0625 -0.359375l0 -1.28125l1.625 0.109375l0 2.765625q-1.25 0.65625 -3.171875 0.65625q-2.4375 0 -3.734375 -1.375q-1.28125 -1.375 -1.28125 -4.09375q0 -1.5 0.421875 -2.625q0.4375 -1.125 1.171875 -1.734375q1.453125 -1.203125 3.421875 -1.203125q1.609375 0 3.015625 0.65625l0 2.71875l-1.625 0.109375l0 -1.25q0 -0.234375 -0.078125 -0.34375zm6.866394 7.765625q1.75 0 1.75 -2.8125q0 -1.421875 -0.390625 -2.15625q-0.390625 -0.734375 -1.3125 -0.734375q-0.921875 0 -1.359375 0.703125q-0.421875 0.703125 -0.421875 1.921875q0 2.25 0.828125 2.828125q0.359375 0.25 0.90625 0.25zm-3.671875 -2.859375q0 -1.1875 0.34375 -2.046875q0.359375 -0.875 0.953125 -1.34375q1.125 -0.859375 2.515625 -0.859375q0.953125 0 1.609375 0.3125q0.671875 0.3125 1.046875 0.71875q0.375 0.40625 0.640625 1.1875q0.265625 0.765625 0.265625 1.828125q0 2.203125 -1.078125 3.34375q-1.0625 1.125 -2.734375 1.125q-1.671875 0 -2.625 -1.078125q-0.9375 -1.078125 -0.9375 -3.1875zm8.354248 -2.734375l0 -1.28125l2.703125 0l0 1.03125q0.40625 -0.578125 1.09375 -0.921875q0.6875 -0.34375 1.5 -0.34375q1.203125 0 1.859375 0.703125q0.671875 0.6875 0.671875 2.078125l0 4.171875l0.921875 0.046875l0 1.28125l-3.8125 0l0 -1.21875l0.53125 -0.046875q0.234375 -0.03125 0.34375 -0.125q0.125 -0.109375 0.125 -0.40625l0 -3.296875q0 -0.875 -0.28125 -1.296875q-0.265625 -0.421875 -1.03125 -0.421875q-0.765625 0 -1.21875 0.484375q-0.4375 0.46875 -0.4375 1.125l0 3.875l0.90625 0.046875l0 1.28125l-3.796875 0l0 -1.21875l0.53125 -0.046875q0.234375 -0.03125 0.34375 -0.125q0.109375 -0.109375 0.109375 -0.40625l0 -4.421875q0 -0.484375 -0.390625 -0.5l-0.671875 -0.046875zm11.459412 -2.984375l1.046875 0l0 1.703125l2.125 0l-0.15625 1.34375l-1.96875 0l0 4.203125q0 0.703125 0.25 0.984375q0.265625 0.28125 0.796875 0.28125q0.53125 0 1.078125 -0.328125l0.484375 1.21875q-0.796875 0.5625 -2.03125 0.5625q-0.71875 0 -1.21875 -0.1875q-0.5 -0.171875 -0.734375 -0.390625q-0.234375 -0.234375 -0.375 -0.65625q-0.125 -0.4375 -0.140625 -0.6875q-0.015625 -0.25 -0.015625 -0.734375l0 -4.265625l-1.140625 0l0.171875 -1.171875q0.75 -0.0625 1.125 -0.53125q0.390625 -0.46875 0.703125 -1.34375zm5.2507324 7.953125l0 -4.421875q0 -0.265625 -0.09375 -0.359375q-0.078125 -0.109375 -0.296875 -0.125l-0.671875 -0.046875l0 -1.296875l2.703125 0l0 1.203125q0.28125 -0.625 0.890625 -1.03125q0.609375 -0.40625 1.390625 -0.40625q0.796875 0 1.515625 0.34375l0 2.390625l-1.484375 0.109375l0 -0.734375q0 -0.328125 -0.15625 -0.40625q-0.171875 -0.078125 -0.4375 -0.078125q-0.640625 0 -1.046875 0.453125q-0.40625 0.453125 -0.40625 1.15625l0 3.71875l1.390625 0.0625l0 1.265625l-4.28125 0l0 -1.21875l0.53125 -0.046875q0.234375 -0.03125 0.34375 -0.125q0.109375 -0.109375 0.109375 -0.40625zm10.079529 0.625q1.75 0 1.75 -2.8125q0 -1.421875 -0.390625 -2.15625q-0.390625 -0.734375 -1.3125 -0.734375q-0.921875 0 -1.359375 0.703125q-0.421875 0.703125 -0.421875 1.921875q0 2.25 0.828125 2.828125q0.359375 0.25 0.90625 0.25zm-3.671875 -2.859375q0 -1.1875 0.34375 -2.046875q0.359375 -0.875 0.953125 -1.34375q1.125 -0.859375 2.515625 -0.859375q0.953125 0 1.609375 0.3125q0.671875 0.3125 1.046875 0.71875q0.375 0.40625 0.640625 1.1875q0.265625 0.765625 0.265625 1.828125q0 2.203125 -1.078125 3.34375q-1.0625 1.125 -2.734375 1.125q-1.671875 0 -2.625 -1.078125q-0.9375 -1.078125 -0.9375 -3.1875zm11.307373 -7.375l0 10.078125l0.90625 0.046875l0 1.28125l-3.796875 0l0 -1.21875l0.53125 -0.046875q0.453125 -0.046875 0.453125 -0.515625l0 -7.875q0 -0.359375 -0.390625 -0.390625l-0.5625 -0.03125l0 -1.328125l2.859375 0zm6.0961304 4.578125q-0.375 -0.140625 -0.921875 -0.140625q-0.546875 0 -0.875 0.25q-0.328125 0.234375 -0.328125 0.59375q0 0.359375 0.109375 0.5625q0.125 0.203125 0.390625 0.34375q0.390625 0.203125 0.953125 0.359375q0.5625 0.15625 0.828125 0.25q0.28125 0.078125 0.6875 0.296875q0.40625 0.203125 0.609375 0.4375q0.5625 0.59375 0.5625 1.515625q0 1.203125 -0.875 1.890625q-0.875 0.671875 -2.21875 0.671875q-1.9375 0 -2.9375 -0.484375l0 -2.234375l1.4375 -0.109375l0 0.765625q0 0.703125 1.34375 0.703125q1.34375 0 1.34375 -0.96875q0 -0.359375 -0.234375 -0.578125q-0.21875 -0.21875 -0.453125 -0.296875q-0.21875 -0.09375 -0.53125 -0.171875q-0.3125 -0.078125 -0.609375 -0.15625q-0.296875 -0.078125 -0.640625 -0.21875q-0.34375 -0.140625 -0.765625 -0.390625q-0.8125 -0.53125 -0.8125 -1.765625q0 -1.234375 0.875 -1.90625q0.890625 -0.671875 2.21875 -0.671875q1.34375 0 2.65625 0.640625l0 1.90625l-1.4375 0.125l0 -0.671875q0 -0.40625 -0.375 -0.546875z" fill-rule="nonzero"/><path fill="#cfe2f3" d="m400.0 277.49606l133.98425 0l0 45.007874l-133.98425 0z" fill-rule="evenodd"/><path stroke="#000000" stroke-width="1.0" stroke-linejoin="round" stroke-linecap="butt" d="m400.0 277.49606l133.98425 0l0 45.007874l-133.98425 0z" fill-rule="evenodd"/><path fill="#000000" d="m418.23126 298.95123q-0.4375 -0.171875 -1.078125 -0.171875q-0.640625 0 -1.03125 0.296875q-0.375 0.28125 -0.375 0.703125q0 0.421875 0.140625 0.65625q0.140625 0.234375 0.4375 0.40625q0.46875 0.234375 1.125 0.421875q0.65625 0.171875 0.96875 0.28125q0.3125 0.09375 0.78125 0.34375q0.484375 0.234375 0.734375 0.515625q0.65625 0.6875 0.65625 1.765625q0 1.40625 -1.015625 2.203125q-1.015625 0.796875 -2.59375 0.796875q-2.265625 0 -3.421875 -0.578125l0 -2.59375l1.671875 -0.140625l0 0.890625q0 0.828125 1.5625 0.828125q1.578125 0 1.578125 -1.140625q0 -0.40625 -0.28125 -0.671875q-0.265625 -0.265625 -0.53125 -0.34375q-0.25 -0.09375 -0.625 -0.1875q-0.359375 -0.09375 -0.703125 -0.1875q-0.34375 -0.09375 -0.75 -0.25q-0.40625 -0.171875 -0.890625 -0.46875q-0.9375 -0.609375 -0.9375 -2.046875q0 -1.453125 1.015625 -2.234375q1.03125 -0.78125 2.578125 -0.78125q1.5625 0 3.09375 0.734375l0 2.25l-1.671875 0.125l0 -0.78125q0 -0.46875 -0.4375 -0.640625zm4.6639404 5.875l0 -9.078125q0 -0.296875 -0.109375 -0.40625q-0.09375 -0.125 -0.359375 -0.140625l-0.640625 -0.03125l0 -1.546875l3.3125 0l0 5.015625q0.96875 -1.375 2.71875 -1.375q1.421875 0 2.1875 0.8125q0.78125 0.796875 0.78125 2.421875l0 4.875l1.0625 0.046875l0 1.5l-4.4375 0l0 -1.421875l0.625 -0.046875q0.265625 -0.046875 0.390625 -0.15625q0.140625 -0.125 0.140625 -0.46875l0 -3.84375q0 -0.96875 -0.3125 -1.484375q-0.296875 -0.53125 -1.1875 -0.53125q-0.890625 0 -1.421875 0.5625q-0.53125 0.546875 -0.53125 1.328125l0 4.515625l1.0625 0.046875l0 1.5l-4.4375 0l0 -1.421875l0.625 -0.046875q0.28125 -0.046875 0.40625 -0.15625q0.125 -0.125 0.125 -0.46875zm18.443787 -6.921875l0 6.9375q0 0.3125 0.09375 0.421875q0.109375 0.109375 0.359375 0.125l0.609375 0.03125l0 1.5l-2.96875 0l0 -1.078125l-0.0625 -0.015625q-0.9375 1.34375 -2.546875 1.34375q-1.90625 0 -2.828125 -1.21875q-0.90625 -1.21875 -0.90625 -3.328125q0 -2.53125 1.21875 -3.9375q1.234375 -1.421875 3.703125 -1.421875q1.578125 0 3.328125 0.640625zm-2.171875 6.046875l0 -4.828125q-0.515625 -0.25 -1.4375 -0.25q-1.25 0 -1.8125 1.015625q-0.5625 1.0 -0.5625 2.671875q0 3.015625 1.953125 3.015625q0.8125 0 1.328125 -0.484375q0.53125 -0.5 0.53125 -1.140625zm5.515564 0.875l0 -9.078125q0 -0.296875 -0.109375 -0.40625q-0.09375 -0.125 -0.34375 -0.140625l-0.65625 -0.03125l0 -1.546875l3.3125 0l0 8.078125q1.03125 -0.09375 1.796875 -0.640625q0.765625 -0.546875 1.046875 -1.421875q0.046875 -0.1875 0.046875 -0.296875q0 -0.3125 -0.34375 -0.3125l-0.71875 -0.03125l0 -1.46875l3.859375 0l0 1.515625l-0.890625 0.046875q-0.234375 1.890625 -1.640625 3.0l1.828125 3.28125l1.140625 0.046875l0 1.5l-2.71875 0l-2.125 -3.875q-0.625 0.15625 -1.28125 0.25l0 2.078125l0.03125 0l1.0625 0.046875l0 1.5l-4.453125 0l0 -1.421875l0.625 -0.046875q0.28125 -0.046875 0.40625 -0.15625q0.125 -0.125 0.125 -0.46875zm17.60727 -6.921875l0 6.9375q0 0.3125 0.09375 0.421875q0.109375 0.109375 0.359375 0.125l0.609375 0.03125l0 1.5l-2.96875 0l0 -1.078125l-0.0625 -0.015625q-0.9375 1.34375 -2.546875 1.34375q-1.90625 0 -2.828125 -1.21875q-0.90625 -1.21875 -0.90625 -3.328125q0 -2.53125 1.21875 -3.9375q1.234375 -1.421875 3.703125 -1.421875q1.578125 0 3.328125 0.640625zm-2.171875 6.046875l0 -4.828125q-0.515625 -0.25 -1.4375 -0.25q-1.25 0 -1.8125 1.015625q-0.5625 1.0 -0.5625 2.671875q0 3.015625 1.953125 3.015625q0.8125 0 1.328125 -0.484375q0.53125 -0.5 0.53125 -1.140625zm5.8593445 3.25q-0.65625 0 -1.015625 -0.359375q-0.34375 -0.375 -0.34375 -0.953125q0 -0.59375 0.359375 -0.96875q0.359375 -0.390625 0.984375 -0.390625q0.625 0 1.0 0.375q0.375 0.359375 0.375 0.953125q0 0.578125 -0.359375 0.96875q-0.34375 0.375 -1.0 0.375zm2.7006836 -0.28125l0 -1.515625l0.625 -0.046875q0.53125 -0.0625 0.53125 -0.53125l0 -8.671875l-1.0625 -0.0625l0 -1.578125l5.34375 0q2.078125 0 3.25 0.984375q1.171875 0.96875 1.171875 2.9375q0 1.953125 -1.328125 3.046875q-1.328125 1.09375 -3.515625 1.09375l-1.578125 0l0 2.703125l1.796875 0.0625l0 1.578125l-5.234375 0zm3.4375 -6.15625l1.34375 0q2.71875 0 2.71875 -2.21875q0 -1.34375 -0.703125 -1.78125q-0.6875 -0.4375 -2.21875 -0.4375l-1.140625 0l0 4.4375zm10.929077 -7.140625l0 11.75l1.0625 0.046875l0 1.5l-4.4375 0l0 -1.421875l0.609375 -0.046875q0.546875 -0.0625 0.546875 -0.609375l0 -9.1875q0 -0.40625 -0.46875 -0.453125l-0.65625 -0.03125l0 -1.546875l3.34375 0zm10.606445 4.28125l0 6.9375q0 0.3125 0.09375 0.421875q0.109375 0.109375 0.359375 0.125l0.609375 0.03125l0 1.5l-2.96875 0l0 -1.078125l-0.0625 -0.015625q-0.9375 1.34375 -2.546875 1.34375q-1.90625 0 -2.828125 -1.21875q-0.90625 -1.21875 -0.90625 -3.328125q0 -2.53125 1.21875 -3.9375q1.234375 -1.421875 3.703125 -1.421875q1.578125 0 3.328125 0.640625zm-2.171875 6.046875l0 -4.828125q-0.515625 -0.25 -1.4375 -0.25q-1.25 0 -1.8125 1.015625q-0.5625 1.0 -0.5625 2.671875q0 3.015625 1.953125 3.015625q0.8125 0 1.328125 -0.484375q0.53125 -0.5 0.53125 -1.140625zm11.234314 2.609375l0 -1.40625q-1.03125 1.453125 -3.03125 1.453125q-2.890625 0 -2.890625 -3.234375l0 -3.75q0 -0.5 -0.46875 -0.515625l-0.59375 -0.046875l0 -1.53125l3.28125 0l0 5.359375q0 0.984375 0.28125 1.5q0.28125 0.5 1.15625 0.5q0.875 0 1.40625 -0.53125q0.53125 -0.546875 0.53125 -1.3125l0 -3.375q0 -0.328125 -0.109375 -0.4375q-0.09375 -0.125 -0.34375 -0.125l-0.609375 -0.046875l0 -1.53125l3.296875 0l0 9.03125q0 2.265625 -1.09375 3.3125q-1.09375 1.046875 -3.3125 1.046875q-2.203125 0 -3.4375 -0.625l0 -2.59375l1.78125 -0.140625l0 0.890625q0 0.5 0.453125 0.671875q0.46875 0.1875 1.296875 0.1875q2.40625 0 2.40625 -2.75zm8.502563 -9.296875q1.40625 0 2.21875 0.6875q0.828125 0.671875 0.828125 1.890625q0 0.828125 -0.359375 1.453125q-0.359375 0.625 -0.890625 0.984375q-0.515625 0.34375 -1.25 0.578125q-1.25 0.375 -2.828125 0.375q0.0625 0.984375 0.625 1.59375q0.5625 0.59375 1.71875 0.59375q1.15625 0 2.3125 -0.8125l0.703125 1.515625q-0.375 0.328125 -1.265625 0.6875q-0.875 0.359375 -2.015625 0.359375q-2.28125 0 -3.34375 -1.265625q-1.0625 -1.265625 -1.0625 -3.453125q0 -2.203125 1.203125 -3.6875q1.21875 -1.5 3.40625 -1.5zm-0.859375 4.265625q0.6875 -0.125 1.265625 -0.546875q0.578125 -0.421875 0.578125 -1.0q0 -1.140625 -1.109375 -1.140625q-1.046875 0 -1.609375 0.828125q-0.5625 0.828125 -0.609375 1.984375q0.8125 -0.015625 1.484375 -0.125zm6.357727 3.296875l0 -5.15625q0 -0.3125 -0.109375 -0.421875q-0.09375 -0.125 -0.34375 -0.140625l-0.796875 -0.0625l0 -1.515625l3.15625 0l0 1.40625q0.34375 -0.734375 1.046875 -1.203125q0.703125 -0.46875 1.625 -0.46875q0.9375 0 1.765625 0.40625l0 2.78125l-1.734375 0.125l0 -0.859375q0 -0.375 -0.1875 -0.46875q-0.203125 -0.09375 -0.5 -0.09375q-0.75 0 -1.21875 0.53125q-0.46875 0.53125 -0.46875 1.359375l0 4.328125l1.609375 0.078125l0 1.46875l-5.0 0l0 -1.421875l0.625 -0.046875q0.28125 -0.046875 0.40625 -0.15625q0.125 -0.125 0.125 -0.46875z" fill-rule="nonzero"/><path fill="#cfe2f3" d="m244.01575 213.98425l149.98425 0l0 45.007874l-149.98425 0z" fill-rule="evenodd"/><path stroke="#000000" stroke-width="1.0" stroke-linejoin="round" stroke-linecap="butt" d="m244.01575 213.98425l149.98425 0l0 45.007874l-149.98425 0z" fill-rule="evenodd"/><path fill="#000000" d="m256.76575 222.22069l2.5 7.515625l0.09375 0l2.609375 -8.078125l-1.140625 -0.078125l0 -1.578125l4.296875 0l0 1.515625l-0.609375 0.046875q-0.25 0.015625 -0.359375 0.140625q-0.109375 0.125 -0.234375 0.421875l-3.515625 10.28125l-2.421875 0l-3.8125 -10.765625l-1.0625 -0.0625l0 -1.578125l4.8125 0l0 1.515625l-0.609375 0.046875q-0.578125 0.046875 -0.578125 0.453125q0 0.09375 0.03125 0.203125zm12.451202 0.796875l0 7.84375l1.0625 0.046875l0 1.5l-4.453125 0l0 -1.421875l0.625 -0.046875q0.53125 -0.0625 0.53125 -0.609375l0 -5.171875q0 -0.328125 -0.109375 -0.4375q-0.09375 -0.109375 -0.34375 -0.109375l-0.65625 -0.03125l0 -1.5625l3.34375 0zm-2.359375 -1.59375q-0.390625 -0.390625 -0.390625 -0.984375q0 -0.609375 0.390625 -1.0q0.390625 -0.40625 1.015625 -0.40625q0.640625 0 1.046875 0.40625q0.40625 0.390625 0.40625 1.0q0 0.59375 -0.40625 0.984375q-0.40625 0.375 -1.046875 0.375q-0.625 0 -1.015625 -0.375zm9.178497 1.328125q0.796875 0 1.53125 0.21875l0 -1.890625q0 -0.40625 -0.484375 -0.4375l-0.796875 -0.0625l0 -1.46875l3.46875 0l0 11.34375q0.015625 0.421875 0.46875 0.421875l0.640625 0.03125l0 1.5l-3.015625 0l0 -1.09375l-0.0625 -0.03125q-0.828125 1.375 -2.53125 1.375q-2.125 0 -2.984375 -1.421875q-0.78125 -1.296875 -0.78125 -3.15625q0 -2.421875 1.203125 -3.875q1.203125 -1.453125 3.34375 -1.453125zm1.53125 6.75l0 -4.84375q-0.671875 -0.296875 -1.421875 -0.296875q-1.234375 0 -1.796875 1.0q-0.5625 0.984375 -0.5625 2.515625q0 3.125 2.015625 3.125q0.765625 0 1.265625 -0.4375q0.5 -0.4375 0.5 -1.0625zm9.065491 -6.75q1.40625 0 2.21875 0.6875q0.828125 0.671875 0.828125 1.890625q0 0.828125 -0.359375 1.453125q-0.359375 0.625 -0.890625 0.984375q-0.515625 0.34375 -1.25 0.578125q-1.25 0.375 -2.828125 0.375q0.0625 0.984375 0.625 1.59375q0.5625 0.59375 1.71875 0.59375q1.15625 0 2.3125 -0.8125l0.703125 1.515625q-0.375 0.328125 -1.265625 0.6875q-0.875 0.359375 -2.015625 0.359375q-2.28125 0 -3.34375 -1.265625q-1.0625 -1.265625 -1.0625 -3.453125q0 -2.203125 1.203125 -3.6875q1.21875 -1.5 3.40625 -1.5zm-0.859375 4.265625q0.6875 -0.125 1.265625 -0.546875q0.578125 -0.421875 0.578125 -1.0q0 -1.140625 -1.109375 -1.140625q-1.046875 0 -1.609375 0.828125q-0.5625 0.828125 -0.609375 1.984375q0.8125 -0.015625 1.484375 -0.125zm9.498383 4.03125q2.03125 0 2.03125 -3.28125q0 -1.671875 -0.453125 -2.515625q-0.453125 -0.859375 -1.53125 -0.859375q-1.078125 0 -1.578125 0.828125q-0.5 0.8125 -0.5 2.21875q0 2.640625 0.96875 3.3125q0.421875 0.296875 1.0625 0.296875zm-4.296875 -3.34375q0 -1.375 0.40625 -2.390625q0.421875 -1.015625 1.109375 -1.5625q1.328125 -1.0 2.9375 -1.0q1.109375 0 1.875 0.359375q0.78125 0.359375 1.21875 0.84375q0.4375 0.46875 0.75 1.375q0.3125 0.90625 0.3125 2.140625q0 2.5625 -1.25 3.890625q-1.25 1.328125 -3.203125 1.328125q-1.953125 0 -3.0625 -1.25q-1.09375 -1.265625 -1.09375 -3.734375z" fill-rule="nonzero"/><path fill="#000000" d="m256.76575 257.68942q-2.46875 -4.1718597 -2.46875 -8.374985q0 -4.203125 2.46875 -8.5l1.765625 0.8125q-2.03125 4.015625 -2.03125 7.578125q0 3.5625 2.015625 7.6406097l-1.75 0.84375zm11.737732 -5.4687347l0 -3.21875l-5.28125 0l0 3.765625l1.078125 0.0625l0 1.578125l-4.515625 0l0 -1.515625l0.625 -0.046875q0.53125 -0.0625 0.53125 -0.53125l0 -8.671875l-1.0625 -0.0625l0 -1.578125l4.515625 0l0 1.515625l-0.609375 0.046875q-0.296875 0.046875 -0.4375 0.171875q-0.125 0.109375 -0.125 0.453125l0 2.890625l5.28125 0l0 -3.4375l-1.0625 -0.0625l0 -1.578125l4.515625 0l0 1.515625l-0.625 0.046875q-0.53125 0.0625 -0.53125 0.59375l0 8.609375l1.0625 0.0625l0 1.578125l-4.515625 0l0 -1.515625l0.609375 -0.046875q0.28125 -0.046875 0.40625 -0.15625q0.140625 -0.125 0.140625 -0.46875zm8.033234 0.09375l0 -8.46875l-1.453125 0q-0.421875 0 -0.421875 0.578125l0 0.875l-1.90625 -0.125l0 -3.171875l9.75 0l0 3.171875l-1.890625 0.125l0 -0.875q0 -0.3125 -0.09375 -0.4375q-0.09375 -0.140625 -0.453125 -0.140625l-1.265625 0l0 8.921875l1.46875 0.0625l0 1.578125l-5.265625 0l0 -1.515625l1.0 -0.046875q0.53125 -0.0625 0.53125 -0.53125zm10.879425 -10.3125l3.171875 8.4375l0.03125 0l3.203125 -8.4375l3.6875 0l0 1.515625l-0.609375 0.046875q-0.5625 0.0625 -0.546875 0.65625l0.46875 8.546875l1.15625 0.0625l0 1.578125l-4.5 0l0 -1.515625l0.671875 -0.046875q0.5 -0.046875 0.484375 -0.484375l-0.34375 -6.59375l-0.046875 0l-2.875 7.453125l-1.765625 0l-2.84375 -7.375l-0.03125 0l-0.375 6.921875l1.21875 0.0625l0 1.578125l-4.40625 0l0 -1.515625l0.671875 -0.046875q0.421875 -0.046875 0.46875 -0.515625l0.5 -8.671875l-1.140625 -0.078125l0 -1.578125l3.75 0zm20.38742 12.40625l-8.859375 0l0 -1.515625l0.625 -0.046875q0.53125 -0.0625 0.53125 -0.53125l0 -8.671875l-1.0625 -0.0625l0 -1.578125l4.5 0l0 1.515625l-0.609375 0.046875q-0.546875 0.0625 -0.546875 0.59375l0 8.328125l3.09375 0q0.265625 0 0.34375 -0.140625q0.09375 -0.140625 0.09375 -0.453125l0 -1.3125l1.890625 0.140625l0 3.6875zm10.065277 0l-8.859375 0l0 -1.515625l0.609375 -0.046875q0.546875 -0.0625 0.546875 -0.53125l0 -8.671875l-1.0625 -0.0625l0 -1.578125l8.53125 0l0 3.09375l-1.890625 0.140625l0 -0.75q0 -0.328125 -0.09375 -0.453125q-0.09375 -0.125 -0.453125 -0.125l-2.765625 0l0 3.1875l4.3125 0l0 1.90625l-4.3125 0l0 3.484375l3.015625 0q0.328125 0 0.421875 -0.140625q0.09375 -0.140625 0.09375 -0.453125l0 -0.9375l1.90625 0.125l0 3.328125zm4.695404 -13.296875l0 11.75l1.0625 0.046875l0 1.5l-4.4375 0l0 -1.421875l0.609375 -0.046875q0.546875 -0.0625 0.546875 -0.609375l0 -9.1875q0 -0.40625 -0.46875 -0.453125l-0.65625 -0.03125l0 -1.546875l3.34375 0zm6.9033203 3.640625q1.40625 0 2.21875 0.6875q0.828125 0.671875 0.828125 1.890625q0 0.828125 -0.359375 1.453125q-0.359375 0.625 -0.890625 0.984375q-0.515625 0.34375 -1.25 0.578125q-1.25 0.375 -2.828125 0.375q0.0625 0.984375 0.625 1.59375q0.5625 0.59375 1.71875 0.59375q1.15625 0 2.3125 -0.8125l0.703125 1.515625q-0.375 0.328125 -1.265625 0.6875q-0.875 0.359375 -2.015625 0.359375q-2.28125 0 -3.34375 -1.265625q-1.0625 -1.265625 -1.0625 -3.453125q0 -2.203125 1.203125 -3.6875q1.21875 -1.5 3.40625 -1.5zm-0.859375 4.265625q0.6875 -0.125 1.265625 -0.546875q0.578125 -0.421875 0.578125 -1.0q0 -1.140625 -1.109375 -1.140625q-1.046875 0 -1.609375 0.828125q-0.5625 0.828125 -0.609375 1.984375q0.8125 -0.015625 1.484375 -0.125zm5.0921326 -2.484375l0 -1.515625l3.15625 0l0 1.21875q1.046875 -1.484375 2.859375 -1.484375q1.828125 0 2.453125 1.484375q1.046875 -1.484375 2.84375 -1.484375q1.34375 0 2.0625 0.8125q0.734375 0.796875 0.734375 2.421875l0 4.875l1.0625 0.046875l0 1.5l-4.4375 0l0 -1.421875l0.609375 -0.046875q0.28125 -0.046875 0.40625 -0.15625q0.125 -0.125 0.140625 -0.453125l0 -3.859375q0 -1.015625 -0.234375 -1.515625q-0.234375 -0.5 -1.09375 -0.5q-0.859375 0 -1.3125 0.53125q-0.453125 0.515625 -0.453125 1.390625l0 4.484375l1.015625 0.046875l0 1.5l-4.40625 0l0 -1.421875l0.625 -0.046875q0.28125 -0.046875 0.40625 -0.15625q0.140625 -0.125 0.140625 -0.46875l0 -3.84375q0 -1.015625 -0.234375 -1.515625q-0.234375 -0.5 -1.109375 -0.5q-0.859375 0 -1.3125 0.546875q-0.453125 0.546875 -0.453125 1.34375l0 4.515625l1.015625 0.046875l0 1.5l-4.40625 0l0 -1.421875l0.609375 -0.046875q0.28125 -0.046875 0.40625 -0.15625q0.140625 -0.125 0.140625 -0.46875l0.015625 0l0 -5.140625q0 -0.328125 -0.109375 -0.4375q-0.09375 -0.125 -0.359375 -0.140625l-0.78125 -0.0625zm20.953186 -1.78125q1.40625 0 2.21875 0.6875q0.828125 0.671875 0.828125 1.890625q0 0.828125 -0.359375 1.453125q-0.359375 0.625 -0.890625 0.984375q-0.515625 0.34375 -1.25 0.578125q-1.25 0.375 -2.828125 0.375q0.0625 0.984375 0.625 1.59375q0.5625 0.59375 1.71875 0.59375q1.15625 0 2.3125 -0.8125l0.703125 1.515625q-0.375 0.328125 -1.265625 0.6875q-0.875 0.359375 -2.015625 0.359375q-2.28125 0 -3.34375 -1.265625q-1.0625 -1.265625 -1.0625 -3.453125q0 -2.203125 1.203125 -3.6875q1.21875 -1.5 3.40625 -1.5zm-0.859375 4.265625q0.6875 -0.125 1.265625 -0.546875q0.578125 -0.421875 0.578125 -1.0q0 -1.140625 -1.109375 -1.140625q-1.046875 0 -1.609375 0.828125q-0.5625 0.828125 -0.609375 1.984375q0.8125 -0.015625 1.484375 -0.125zm5.0921326 -2.5l0 -1.5l3.15625 0l0 1.21875q0.484375 -0.6875 1.28125 -1.078125q0.8125 -0.40625 1.734375 -0.40625q1.421875 0 2.1875 0.8125q0.78125 0.796875 0.78125 2.421875l0 4.875l1.0625 0.046875l0 1.5l-4.4375 0l0 -1.421875l0.625 -0.046875q0.265625 -0.046875 0.390625 -0.15625q0.140625 -0.125 0.140625 -0.46875l0 -3.84375q0 -1.015625 -0.3125 -1.515625q-0.3125 -0.5 -1.203125 -0.5q-0.890625 0 -1.421875 0.5625q-0.515625 0.5625 -0.515625 1.328125l0 4.515625l1.0625 0.046875l0 1.5l-4.4375 0l0 -1.421875l0.625 -0.046875q0.28125 -0.046875 0.40625 -0.15625q0.125 -0.125 0.125 -0.46875l0 -5.15625q0 -0.5625 -0.46875 -0.578125l-0.78125 -0.0625zm13.381256 -3.46875l1.21875 0l0 1.96875l2.46875 0l-0.1875 1.578125l-2.28125 0l0 4.90625q0 0.8125 0.296875 1.140625q0.296875 0.328125 0.921875 0.328125q0.625 0 1.25 -0.390625l0.5625 1.4375q-0.9375 0.65625 -2.359375 0.65625q-0.84375 0 -1.421875 -0.21875q-0.578125 -0.21875 -0.859375 -0.46875q-0.28125 -0.265625 -0.4375 -0.765625q-0.140625 -0.515625 -0.171875 -0.796875q-0.015625 -0.296875 -0.015625 -0.84375l0 -4.984375l-1.3125 0l0.1875 -1.359375q0.875 -0.078125 1.3125 -0.625q0.453125 -0.5625 0.828125 -1.5625zm6.7677917 -2.28125q2.46875 4.1875 2.46875 8.390625q0 4.1875 -2.46875 8.499985l-1.765625 -0.828125q2.03125 -3.9999847 2.03125 -7.5624847q0 -3.578125 -2.015625 -7.65625l1.75 -0.84375z" fill-rule="nonzero"/><path fill="#cfe2f3" d="m40.503937 277.49606l181.51181 0l0 45.007874l-181.51181 0z" fill-rule="evenodd"/><path stroke="#000000" stroke-width="1.0" stroke-linejoin="round" stroke-linecap="butt" d="m40.503937 277.49606l181.51181 0l0 45.007874l-181.51181 0z" fill-rule="evenodd"/><path fill="#000000" d="m60.62271 299.03186q-0.375 -0.140625 -0.921875 -0.140625q-0.546875 0 -0.875 0.25q-0.328125 0.234375 -0.328125 0.59375q0 0.359375 0.109375 0.5625q0.125 0.203125 0.390625 0.34375q0.390625 0.203125 0.953125 0.359375q0.5625 0.15625 0.828125 0.25q0.28125 0.078125 0.6875 0.296875q0.40625 0.203125 0.609375 0.4375q0.5625 0.59375 0.5625 1.515625q0 1.203125 -0.875 1.890625q-0.875 0.671875 -2.21875 0.671875q-1.9375 0 -2.9375 -0.484375l0 -2.234375l1.4375 -0.109375l0 0.765625q0 0.703125 1.34375 0.703125q1.34375 0 1.34375 -0.96875q0 -0.359375 -0.234375 -0.578125q-0.21875 -0.21875 -0.453125 -0.296875q-0.21875 -0.09375 -0.53125 -0.171875q-0.3125 -0.078125 -0.609375 -0.15625q-0.296875 -0.078125 -0.640625 -0.21875q-0.34375 -0.140625 -0.765625 -0.390625q-0.8125 -0.53125 -0.8125 -1.765625q0 -1.234375 0.875 -1.90625q0.890625 -0.671875 2.21875 -0.671875q1.34375 0 2.65625 0.640625l0 1.90625l-1.4375 0.125l0 -0.671875q0 -0.40625 -0.375 -0.546875zm3.9972687 5.03125l0 -7.78125q0 -0.265625 -0.09375 -0.359375q-0.078125 -0.09375 -0.296875 -0.109375l-0.5625 -0.03125l0 -1.328125l2.84375 0l0 4.296875q0.828125 -1.171875 2.34375 -1.171875q1.203125 0 1.859375 0.703125q0.671875 0.6875 0.671875 2.078125l0 4.171875l0.921875 0.046875l0 1.28125l-3.8125 0l0 -1.21875l0.53125 -0.046875q0.234375 -0.03125 0.34375 -0.125q0.125 -0.109375 0.125 -0.40625l0 -3.296875q0 -0.828125 -0.265625 -1.265625q-0.265625 -0.453125 -1.03125 -0.453125q-0.765625 0 -1.21875 0.46875q-0.453125 0.46875 -0.453125 1.140625l0 3.875l0.90625 0.046875l0 1.28125l-3.796875 0l0 -1.21875l0.53125 -0.046875q0.234375 -0.03125 0.34375 -0.125q0.109375 -0.109375 0.109375 -0.40625zm15.818771 -5.9375l0 5.953125q0 0.265625 0.078125 0.359375q0.09375 0.09375 0.3125 0.109375l0.515625 0.03125l0 1.28125l-2.546875 0l0 -0.921875l-0.046875 -0.015625q-0.796875 1.140625 -2.1875 1.140625q-1.640625 0 -2.421875 -1.03125q-0.78125 -1.046875 -0.78125 -2.859375q0 -2.171875 1.046875 -3.375q1.0625 -1.21875 3.171875 -1.21875q1.359375 0 2.859375 0.546875zm-1.859375 5.1875l0 -4.140625q-0.453125 -0.203125 -1.234375 -0.203125q-1.078125 0 -1.5625 0.859375q-0.46875 0.859375 -0.46875 2.28125q0 2.59375 1.65625 2.59375q0.703125 0 1.15625 -0.421875q0.453125 -0.421875 0.453125 -0.96875zm4.7282715 0.75l0 -7.78125q0 -0.265625 -0.09375 -0.359375q-0.078125 -0.09375 -0.296875 -0.109375l-0.5625 -0.03125l0 -1.328125l2.84375 0l0 6.921875q0.875 -0.078125 1.53125 -0.53125q0.65625 -0.46875 0.90625 -1.21875q0.046875 -0.171875 0.046875 -0.265625q0 -0.265625 -0.3125 -0.265625l-0.609375 -0.03125l0 -1.25l3.3125 0l0 1.296875l-0.765625 0.03125q-0.203125 1.625 -1.40625 2.578125l1.578125 2.8125l0.96875 0.046875l0 1.28125l-2.34375 0l-1.8125 -3.328125q-0.53125 0.140625 -1.09375 0.21875l0 1.78125l0.015625 0l0.921875 0.046875l0 1.28125l-3.8125 0l0 -1.21875l0.53125 -0.046875q0.234375 -0.03125 0.34375 -0.125q0.109375 -0.109375 0.109375 -0.40625zm15.099136 -5.9375l0 5.953125q0 0.265625 0.078125 0.359375q0.09375 0.09375 0.3125 0.109375l0.515625 0.03125l0 1.28125l-2.546875 0l0 -0.921875l-0.046875 -0.015625q-0.796875 1.140625 -2.1875 1.140625q-1.640625 0 -2.421875 -1.03125q-0.78125 -1.046875 -0.78125 -2.859375q0 -2.171875 1.046875 -3.375q1.0625 -1.21875 3.171875 -1.21875q1.359375 0 2.859375 0.546875zm-1.859375 5.1875l0 -4.140625q-0.453125 -0.203125 -1.234375 -0.203125q-1.078125 0 -1.5625 0.859375q-0.46875 0.859375 -0.46875 2.28125q0 2.59375 1.65625 2.59375q0.703125 0 1.15625 -0.421875q0.453125 -0.421875 0.453125 -0.96875zm5.0251465 2.78125q-0.5625 0 -0.875 -0.3125q-0.296875 -0.3125 -0.296875 -0.8125q0 -0.5 0.3125 -0.828125q0.3125 -0.328125 0.84375 -0.328125q0.546875 0 0.859375 0.3125q0.3125 0.3125 0.3125 0.8125q0 0.5 -0.296875 0.828125q-0.296875 0.328125 -0.859375 0.328125zm4.2722626 -4.34375q0 1.359375 0.5 2.109375q0.515625 0.75 1.484375 0.75q0.96875 0 1.921875 -0.6875l0.6875 1.234375q-1.140625 0.921875 -2.859375 0.921875q-1.703125 0 -2.6875 -1.078125q-0.984375 -1.078125 -0.984375 -3.1875q0 -2.109375 1.125 -3.171875q1.125 -1.0625 2.53125 -1.0625q1.421875 0 2.640625 0.65625l0 2.078125l-1.46875 0.109375l0 -0.765625q0 -0.4375 -0.3125 -0.53125q-0.3125 -0.109375 -0.640625 -0.109375q-1.9375 0 -1.9375 2.734375zm12.786011 -3.625l0 5.953125q0 0.265625 0.078125 0.359375q0.09375 0.09375 0.3125 0.109375l0.515625 0.03125l0 1.28125l-2.546875 0l0 -0.921875l-0.046875 -0.015625q-0.796875 1.140625 -2.1875 1.140625q-1.640625 0 -2.421875 -1.03125q-0.78125 -1.046875 -0.78125 -2.859375q0 -2.171875 1.046875 -3.375q1.0625 -1.21875 3.171875 -1.21875q1.359375 0 2.859375 0.546875zm-1.859375 5.1875l0 -4.140625q-0.453125 -0.203125 -1.234375 -0.203125q-1.078125 0 -1.5625 0.859375q-0.46875 0.859375 -0.46875 2.28125q0 2.59375 1.65625 2.59375q0.703125 0 1.15625 -0.421875q0.453125 -0.421875 0.453125 -0.96875zm7.9313965 -4.28125q-0.375 -0.140625 -0.921875 -0.140625q-0.546875 0 -0.875 0.25q-0.328125 0.234375 -0.328125 0.59375q0 0.359375 0.109375 0.5625q0.125 0.203125 0.390625 0.34375q0.390625 0.203125 0.953125 0.359375q0.5625 0.15625 0.828125 0.25q0.28125 0.078125 0.6875 0.296875q0.40625 0.203125 0.609375 0.4375q0.5625 0.59375 0.5625 1.515625q0 1.203125 -0.875 1.890625q-0.875 0.671875 -2.21875 0.671875q-1.9375 0 -2.9375 -0.484375l0 -2.234375l1.4375 -0.109375l0 0.765625q0 0.703125 1.34375 0.703125q1.34375 0 1.34375 -0.96875q0 -0.359375 -0.234375 -0.578125q-0.21875 -0.21875 -0.453125 -0.296875q-0.21875 -0.09375 -0.53125 -0.171875q-0.3125 -0.078125 -0.609375 -0.15625q-0.296875 -0.078125 -0.640625 -0.21875q-0.34375 -0.140625 -0.765625 -0.390625q-0.8125 -0.53125 -0.8125 -1.765625q0 -1.234375 0.875 -1.90625q0.890625 -0.671875 2.21875 -0.671875q1.34375 0 2.65625 0.640625l0 1.90625l-1.4375 0.125l0 -0.671875q0 -0.40625 -0.375 -0.546875zm4.7941437 -2.921875l1.046875 0l0 1.703125l2.125 0l-0.15625 1.34375l-1.96875 0l0 4.203125q0 0.703125 0.25 0.984375q0.265625 0.28125 0.796875 0.28125q0.53125 0 1.078125 -0.328125l0.484375 1.21875q-0.796875 0.5625 -2.03125 0.5625q-0.71875 0 -1.21875 -0.1875q-0.5 -0.171875 -0.734375 -0.390625q-0.234375 -0.234375 -0.375 -0.65625q-0.125 -0.4375 -0.140625 -0.6875q-0.015625 -0.25 -0.015625 -0.734375l0 -4.265625l-1.140625 0l0.171875 -1.171875q0.75 -0.0625 1.125 -0.53125q0.390625 -0.46875 0.703125 -1.34375zm5.547638 9.984375q-0.5625 0 -0.875 -0.3125q-0.296875 -0.3125 -0.296875 -0.8125q0 -0.5 0.3125 -0.828125q0.3125 -0.328125 0.84375 -0.328125q0.546875 0 0.859375 0.3125q0.3125 0.3125 0.3125 0.8125q0 0.5 -0.296875 0.828125q-0.296875 0.328125 -0.859375 0.328125zm8.772263 -9.171875q-0.171875 -0.3125 -1.3125 -0.3125q-1.484375 0 -2.25 1.015625q-0.765625 1.0 -0.765625 2.90625q0 3.953125 2.953125 3.953125q0.046875 0 0.421875 0q0.390625 0 0.71875 -0.09375q0.34375 -0.109375 0.40625 -0.21875q0.0625 -0.125 0.0625 -0.359375l0 -1.28125l1.625 0.109375l0 2.765625q-1.25 0.65625 -3.171875 0.65625q-2.4375 0 -3.734375 -1.375q-1.28125 -1.375 -1.28125 -4.09375q0 -1.5 0.421875 -2.625q0.4375 -1.125 1.171875 -1.734375q1.453125 -1.203125 3.421875 -1.203125q1.609375 0 3.015625 0.65625l0 2.71875l-1.625 0.109375l0 -1.25q0 -0.234375 -0.078125 -0.34375zm10.382019 1.203125l0 5.953125q0 0.265625 0.078125 0.359375q0.09375 0.09375 0.3125 0.109375l0.515625 0.03125l0 1.28125l-2.546875 0l0 -0.921875l-0.046875 -0.015625q-0.796875 1.140625 -2.1875 1.140625q-1.640625 0 -2.421875 -1.03125q-0.78125 -1.046875 -0.78125 -2.859375q0 -2.171875 1.046875 -3.375q1.0625 -1.21875 3.171875 -1.21875q1.359375 0 2.859375 0.546875zm-1.859375 5.1875l0 -4.140625q-0.453125 -0.203125 -1.234375 -0.203125q-1.078125 0 -1.5625 0.859375q-0.46875 0.859375 -0.46875 2.28125q0 2.59375 1.65625 2.59375q0.703125 0 1.15625 -0.421875q0.453125 -0.421875 0.453125 -0.96875zm7.9313965 -4.28125q-0.375 -0.140625 -0.921875 -0.140625q-0.546875 0 -0.875 0.25q-0.328125 0.234375 -0.328125 0.59375q0 0.359375 0.109375 0.5625q0.125 0.203125 0.390625 0.34375q0.390625 0.203125 0.953125 0.359375q0.5625 0.15625 0.828125 0.25q0.28125 0.078125 0.6875 0.296875q0.40625 0.203125 0.609375 0.4375q0.5625 0.59375 0.5625 1.515625q0 1.203125 -0.875 1.890625q-0.875 0.671875 -2.21875 0.671875q-1.9375 0 -2.9375 -0.484375l0 -2.234375l1.4375 -0.109375l0 0.765625q0 0.703125 1.34375 0.703125q1.34375 0 1.34375 -0.96875q0 -0.359375 -0.234375 -0.578125q-0.21875 -0.21875 -0.453125 -0.296875q-0.21875 -0.09375 -0.53125 -0.171875q-0.3125 -0.078125 -0.609375 -0.15625q-0.296875 -0.078125 -0.640625 -0.21875q-0.34375 -0.140625 -0.765625 -0.390625q-0.8125 -0.53125 -0.8125 -1.765625q0 -1.234375 0.875 -1.90625q0.890625 -0.671875 2.21875 -0.671875q1.34375 0 2.65625 0.640625l0 1.90625l-1.4375 0.125l0 -0.671875q0 -0.40625 -0.375 -0.546875zm4.7941437 -2.921875l1.046875 0l0 1.703125l2.125 0l-0.15625 1.34375l-1.96875 0l0 4.203125q0 0.703125 0.25 0.984375q0.265625 0.28125 0.796875 0.28125q0.53125 0 1.078125 -0.328125l0.484375 1.21875q-0.796875 0.5625 -2.03125 0.5625q-0.71875 0 -1.21875 -0.1875q-0.5 -0.171875 -0.734375 -0.390625q-0.234375 -0.234375 -0.375 -0.65625q-0.125 -0.4375 -0.140625 -0.6875q-0.015625 -0.25 -0.015625 -0.734375l0 -4.265625l-1.140625 0l0.171875 -1.171875q0.75 -0.0625 1.125 -0.53125q0.390625 -0.46875 0.703125 -1.34375zm4.250763 9.75l0 -1.296875l0.53125 -0.046875q0.453125 -0.046875 0.453125 -0.453125l0 -7.4375l-0.90625 -0.046875l0 -1.359375l4.578125 0q1.78125 0 2.78125 0.84375q1.0 0.84375 1.0 2.53125q0 1.671875 -1.140625 2.609375q-1.125 0.921875 -3.0 0.921875l-1.359375 0l0 2.328125l1.53125 0.046875l0 1.359375l-4.46875 0zm2.9375 -5.28125l1.15625 0q2.328125 0 2.328125 -1.90625q0 -1.15625 -0.59375 -1.53125q-0.59375 -0.375 -1.90625 -0.375l-0.984375 0l0 3.8125zm7.5025177 3.484375l0 -4.421875q0 -0.265625 -0.09375 -0.359375q-0.078125 -0.109375 -0.296875 -0.125l-0.671875 -0.046875l0 -1.296875l2.703125 0l0 1.203125q0.28125 -0.625 0.890625 -1.03125q0.609375 -0.40625 1.390625 -0.40625q0.796875 0 1.515625 0.34375l0 2.390625l-1.484375 0.109375l0 -0.734375q0 -0.328125 -0.15625 -0.40625q-0.171875 -0.078125 -0.4375 -0.078125q-0.640625 0 -1.046875 0.453125q-0.40625 0.453125 -0.40625 1.15625l0 3.71875l1.390625 0.0625l0 1.265625l-4.28125 0l0 -1.21875l0.53125 -0.046875q0.234375 -0.03125 0.34375 -0.125q0.109375 -0.109375 0.109375 -0.40625zm10.079514 0.625q1.75 0 1.75 -2.8125q0 -1.421875 -0.390625 -2.15625q-0.390625 -0.734375 -1.3125 -0.734375q-0.921875 0 -1.359375 0.703125q-0.421875 0.703125 -0.421875 1.921875q0 2.25 0.828125 2.828125q0.359375 0.25 0.90625 0.25zm-3.671875 -2.859375q0 -1.1875 0.34375 -2.046875q0.359375 -0.875 0.953125 -1.34375q1.125 -0.859375 2.515625 -0.859375q0.953125 0 1.609375 0.3125q0.671875 0.3125 1.046875 0.71875q0.375 0.40625 0.640625 1.1875q0.265625 0.765625 0.265625 1.828125q0 2.203125 -1.078125 3.34375q-1.0625 1.125 -2.734375 1.125q-1.671875 0 -2.625 -1.078125q-0.9375 -1.078125 -0.9375 -3.1875zm13.026138 2.328125l-0.984375 -1.265625l-1.328125 1.640625l0.75 0.046875l0 1.28125l-3.328125 0l0 -1.265625l0.5 -0.046875q0.375 -0.046875 0.640625 -0.390625l1.84375 -2.296875l-1.96875 -2.71875l-0.8125 -0.09375l0 -1.234375l3.71875 0l0 1.265625l-0.453125 0.03125q-0.203125 0.015625 -0.265625 0.140625q-0.046875 0.125 0.0625 0.265625l0.921875 1.21875l1.21875 -1.59375l-0.65625 -0.046875l0 -1.28125l3.25 0l0 1.25l-0.46875 0.03125q-0.34375 0.015625 -0.640625 0.390625l-1.765625 2.234375l2.09375 2.78125l0.8125 0.09375l0 1.265625l-3.796875 0l0 -1.265625l0.484375 -0.03125q0.21875 -0.015625 0.25 -0.125q0.046875 -0.125 -0.078125 -0.28125zm9.856522 1.40625l0 -1.21875q-0.890625 1.25 -2.59375 1.25q-2.484375 0 -2.484375 -2.78125l0 -3.203125q0 -0.4375 -0.40625 -0.453125l-0.5 -0.03125l0 -1.3125l2.8125 0l0 4.59375q0 0.84375 0.234375 1.28125q0.25 0.421875 1.0 0.421875q0.75 0 1.203125 -0.453125q0.453125 -0.46875 0.453125 -1.125l0 -2.890625q0 -0.28125 -0.09375 -0.375q-0.078125 -0.109375 -0.296875 -0.109375l-0.515625 -0.03125l0 -1.3125l2.8125 0l0 7.75q0 1.921875 -0.9375 2.8125q-0.9375 0.90625 -2.828125 0.90625q-1.890625 0 -2.953125 -0.53125l0 -2.21875l1.515625 -0.125l0 0.765625q0 0.4375 0.390625 0.578125q0.40625 0.15625 1.125 0.15625q2.0625 0 2.0625 -2.34375z" fill-rule="nonzero"/><path fill="#000000" fill-opacity="0.0" d="m222.0 276.0l22.015747 -17.007874" fill-rule="evenodd"/><path stroke="#000000" stroke-width="1.0" stroke-linejoin="round" stroke-linecap="butt" d="m222.0 276.0l17.267593 -13.339783" fill-rule="evenodd"/><path fill="#000000" stroke="#000000" stroke-width="1.0" stroke-linecap="butt" d="m240.27737 263.96735l2.581482 -4.081482l-4.601059 1.4672546z" fill-rule="evenodd"/><path fill="#000000" fill-opacity="0.0" d="m379.98425 213.98425l21.007874 -36.97638" fill-rule="evenodd"/><path stroke="#000000" stroke-width="1.0" stroke-linejoin="round" stroke-linecap="butt" d="m379.98425 213.98425l18.043976 -31.759552" fill-rule="evenodd"/><path fill="#000000" stroke="#000000" stroke-width="1.0" stroke-linecap="butt" d="m399.46436 183.04063l0.805603 -4.761673l-3.6778564 3.1298065z" fill-rule="evenodd"/><path fill="#000000" fill-opacity="0.0" d="m222.01575 300.0l177.98425 0" fill-rule="evenodd"/><path stroke="#000000" stroke-width="1.0" stroke-linejoin="round" stroke-linecap="butt" d="m222.01575 300.0l171.98425 0" fill-rule="evenodd"/><path fill="#000000" stroke="#000000" stroke-width="1.0" stroke-linecap="butt" d="m394.0 301.65173l4.538086 -1.6517334l-4.538086 -1.6517334z" fill-rule="evenodd"/><path fill="#000000" fill-opacity="0.0" d="m511.49606 175.0l-44.503937 102.48819" fill-rule="evenodd"/><path stroke="#000000" stroke-width="1.0" stroke-linejoin="round" stroke-linecap="butt" d="m511.49606 175.0l-42.114136 96.98465" fill-rule="evenodd"/><path fill="#000000" stroke="#000000" stroke-width="1.0" stroke-linecap="butt" d="m467.86688 271.32678l-0.29248047 4.820465l3.3226013 -3.5046997z" fill-rule="evenodd"/><path fill="#000000" fill-opacity="0.0" d="m602.0 177.49606l1.0078735 214.51968" fill-rule="evenodd"/><path stroke="#000000" stroke-width="1.0" stroke-linejoin="round" stroke-linecap="butt" d="m602.0 177.49606l0.9796753 208.51978" fill-rule="evenodd"/><path fill="#000000" stroke="#000000" stroke-width="1.0" stroke-linecap="butt" d="m601.32794 386.02356l1.6730347 4.530304l1.6304321 -4.545807z" fill-rule="evenodd"/><path fill="#000000" fill-opacity="0.0" d="m540.2598 419.49606l-313.25983 -95.49606" fill-rule="evenodd"/><path stroke="#000000" stroke-width="1.0" stroke-linejoin="round" stroke-linecap="butt" d="m540.2598 419.49606l-307.52057 -93.74646" fill-rule="evenodd"/><path fill="#000000" stroke="#000000" stroke-width="1.0" stroke-linecap="butt" d="m233.22089 324.16965l-4.82251 0.25665283l3.8592224 2.9032288z" fill-rule="evenodd"/></g></svg>