<svg xmlns="http://www.w3.org/2000/svg" width="24" height="24"><path d="M0 0h24v24H0z" fill="none"/><path d="M5 4a2 2 0 0 0-2 2v12a2 2 0 0 0 2 2h14c1.1 0 2-.9 2-2V6c0-1.1-.9-2-2-2H5zm-.764 3.389h1.092c.289 0 .414.203.451.459l.678 6.746.965-6.783c.038-.243.201-.422.44-.422h1.267c.238 0 .413.179.451.422l.965 6.77.678-6.733c.037-.256.187-.46.45-.46h1.093c.288 0 .463.204.425.46l-.877 8.304c-.037.256-.2.46-.45.46H9.68c-.239 0-.4-.18-.438-.423l-.74-5.34-.74 5.34c-.038.243-.213.422-.451.422H5.14c-.251 0-.414-.203-.452-.459L3.8 7.848c-.038-.256.149-.46.437-.46zm10.069 0h1.142c.239 0 .402.165.44.382l1.203 7.104 1.203-7.104a.452.452 0 0 1 .453-.382h1.016a.45.45 0 0 1 .44.523l-1.495 8.317c-.038.255-.187.382-.426.382h-2.496c-.238 0-.402-.165-.44-.382l-1.491-8.305c-.063-.345.2-.535.45-.535z"/></svg>