<svg xmlns="http://www.w3.org/2000/svg" width="24" height="24"><path d="M0 0h24v24H0z" fill="none"/><path d="M5 4a2 2 0 0 0-2 2v12a2 2 0 0 0 2 2h14c1.1 0 2-.9 2-2V6c0-1.1-.9-2-2-2H5zm-.064 2.75h1.212c.386 0 .573.19.573.582v3.592h2.27V7.332c0-.393.184-.582.57-.582h1.214c.386 0 .57.19.57.582v9.336c0 .393-.184.582-.57.582H9.561c-.386 0-.57-.19-.57-.582v-3.709H6.72v3.709c0 .393-.187.582-.573.582H4.936c-.386 0-.57-.19-.57-.582V7.332c0-.393.184-.582.57-.582zm8.574 0h3.885c1.327 0 2.24.946 2.24 2.27v5.933c0 1.353-.913 2.297-2.24 2.297H13.51c-.386 0-.584-.203-.584-.596V7.346c0-.393.198-.596.584-.596zm2.027 2.05c-.157 0-.256.103-.256.262v5.876c0 .16.1.261.256.261h.785c.643 0 .957-.319.957-.959V9.76c0-.64-.298-.96-.898-.96h-.844z"/></svg>