<svg xmlns="http://www.w3.org/2000/svg" width="24" height="24"><path d="M0 0h24v24H0z" fill="none"/><path d="M5 4a2 2 0 0 0-2 2v12a2 2 0 0 0 2 2h14c1.1 0 2-.9 2-2V6c0-1.1-.9-2-2-2H5zm2.188 2.75h2.656c.385 0 .57.19.57.582v5.803h.629c.385 0 .572.218.572.553v.916c0 .392-.187.582-.572.582h-.629v1.482c0 .393-.185.582-.57.582h-.985c-.385 0-.572-.19-.572-.582v-1.482H5.262c-.386 0-.573-.19-.573-.582v-1.208c0-.189.043-.393.1-.568L6.66 7.172c.1-.247.228-.422.527-.422zm6.058 0h1.213c.385 0 .57.203.57.596v3.578h.371a.614.614 0 0 0 .6-.465l.857-3.316c.058-.233.229-.393.557-.393h1.272c.385 0 .684.277.57.67l-.942 3.402c-.128.466-.4.829-.742 1.12.343.276.614.64.742 1.105l.971 3.549c.114.363-.171.654-.556.654h-1.272c-.343 0-.513-.174-.57-.393L16 13.41a.636.636 0 0 0-.6-.451h-.37v3.709c0 .393-.186.582-.571.582h-1.213c-.385 0-.572-.19-.572-.582V7.332c0-.393.187-.582.572-.582zM8.287 8.7l-1.47 4.435h1.47V8.699z"/></svg>