<svg xmlns="http://www.w3.org/2000/svg" width="24" height="24"><path d="M0 0h24v24H0z" fill="none"/><path d="M5 4a2 2 0 0 0-2 2v12a2 2 0 0 0 2 2h14c1.1 0 2-.9 2-2V6c0-1.1-.9-2-2-2H5zm1.293 3.389h3.11c1.153 0 1.968.83 1.968 2.006v1.544c0 1.189-.802 2.02-1.969 2.02H7.873v3.129c0 .345-.163.523-.502.523H6.316c-.338 0-.513-.165-.513-.51V7.899c0-.344.164-.51.49-.51zm6.564 0h3.098c1.166 0 1.982.83 1.982 2.006v1.277c0 .651-.376 1.329-1.091 1.674.288.255.514.766.652 1.226l.678 2.465c.088.294-.088.574-.477.574h-1.168c-.288 0-.414-.126-.476-.343l-.752-3.03c-.05-.204-.29-.394-.528-.394h-.338v3.244c0 .345-.163.523-.501.523h-1.053c-.339 0-.516-.165-.516-.51V7.899c0-.344.164-.51.49-.51zm-4.76 1.8a.226.226 0 0 0-.224.23v1.75h.588c.564 0 .842-.28.842-.843v-.332c0-.575-.289-.805-.803-.805h-.402zm6.59 0c-.137 0-.25.116-.25.23v1.636h.59c.565 0 .84-.281.84-.83v-.23c0-.563-.288-.806-.803-.806h-.377z"/></svg>