<svg xmlns="http://www.w3.org/2000/svg" width="24" height="24"><path d="M0 0h24v24H0z" fill="none"/><path d="M19 4H5a2 2 0 00-2 2v12a2 2 0 002 2h14c1.1 0 2-.9 2-2V6c0-1.1-.9-2-2-2z"/><g aria-label="Ad" style="line-height:1.25;-inkscape-font-specification:'Fishmonger CB, Normal';font-variant-ligatures:normal;font-variant-caps:normal;font-variant-numeric:normal;font-feature-settings:normal;text-align:start" font-weight="400" font-size="14.409" font-family="Fishmonger CB" letter-spacing="0" word-spacing="0" fill="#fffffe" stroke-width="1.081"><path d="M7.06 7.343c-.271 0-.443.19-.5.437l-1.856 9.452c-.057.35.2.61.529.61h1.142c.285 0 .457-.188.5-.435l.256-1.31c.029-.145.115-.217.243-.217h2.042c.157 0 .228.101.27.218l.244 1.309c.057.276.228.436.5.436h1.327c.328 0 .557-.276.485-.625L10.401 7.78c-.057-.248-.243-.437-.528-.437zm2.199 6.486H7.545l.857-4.508zM17.44 6.296c-.385 0-.57.19-.57.582v4.014l-1.614-.335a2.263 2.263 0 00-.485-.058c-.814 0-1.371.596-1.371 1.483v4.436c0 .872.585 1.468 1.37 1.468.115 0 .272-.014.429-.058l1.67-.334.257.349h1.5c.4 0 .599-.204.599-.61V6.877c0-.393-.186-.582-.571-.582zm-.57 6.21v3.3h-.7c-.243 0-.414-.145-.414-.392v-2.516a.39.39 0 01.4-.392z" style="-inkscape-font-specification:'Fishmonger CB, Normal';font-variant-ligatures:normal;font-variant-caps:normal;font-variant-numeric:normal;font-feature-settings:normal;text-align:start"/></g></svg>