<svg xmlns="http://www.w3.org/2000/svg" width="24" height="24"><path d="M0 0h24v24H0z" fill="none"/><path d="M5 4a2 2 0 0 0-2 2v12a2 2 0 0 0 2 2h14c1.1 0 2-.9 2-2V6c0-1.1-.9-2-2-2H5zm3.053 3.389h2.521c.339 0 .514.178.514.523v.754c0 .345-.175.523-.514.523h-1.63c-.502 0-.803.282-.803.844v3.934c0 .562.275.844.84.844h1.593c.339 0 .514.178.514.523v.754c0 .345-.175.523-.514.523H8.04c-1.166 0-1.969-.83-1.969-2.017v-5.2c0-1.175.816-2.005 1.983-2.005zm4.549 0h1.066c.339 0 .502.178.502.523v3.143h.326c.25 0 .463-.166.525-.409l.754-2.914c.05-.204.2-.343.489-.343h1.117c.338 0 .6.243.5.588l-.826 2.988a1.97 1.97 0 0 1-.653.984c.301.243.54.562.653.97l.851 3.118c.1.32-.15.574-.488.574h-1.117c-.301 0-.452-.152-.502-.343l-.778-3.03a.556.556 0 0 0-.525-.394h-.326v3.258c0 .344-.163.51-.502.51h-1.066c-.34 0-.502-.166-.502-.51V7.898c0-.344.163-.51.502-.51z"/></svg>