<?xml version="1.0" encoding="UTF-8"?>
<svg id="Art" xmlns="http://www.w3.org/2000/svg" version="1.1" viewBox="0 0 1289.28 916.67">
  <!-- Generator: Adobe Illustrator 29.6.1, SVG Export Plug-In . SVG Version: 2.1.1 Build 9)  -->
  <defs>
    <style>
      .st0 {
        fill: #000a3c;
      }

      .st1 {
        fill: #000a3c;
      }
    </style>
  </defs>
  <path class="st1" d="M411.66,609.26c0-53.95-56.94-79.78-125.12-79.78-72.66,0-139.36,32.21-163.69,82.12-6.73,13.35-10.2,28.11-10.13,43.07-.34,12.86,3.18,25.52,10.13,36.35,10.49,15.21,29.23,25.09,56.57,25.09,33.7,0,60.31-18.25,60.31-50.58,0,0,.36-9.12-10.13-9.12-8.61,0-10.86,6.08-10.49,9.12,1.13,25.09-13.87,45.32-40.45,45.32-29.96,0-42.34-25.49-42.34-52.43,0-55.45,41.94-92.52,85.4-108.64,20.32-7.8,41.95-11.61,63.72-11.22,49.45,0,89.9,19.1,89.9,69.68,0,42.34-35.58,78.65-78.29,81.66l1.89-5.63c8.61-31.08,19.47-65.18,37.08-90.66,1.44-2.25,3.07-4.38,4.87-6.36l-2.62-3.04c-3.74,2.25-7.12,4.87-10.86,7.48-81.66,63.69-84.28,243.5-193.28,243.5-3.74,0-7.48-.36-11.22-.76-22.9-3.89-34.82-19.1-34.82-40.09,0-4.11,1.49-10.13,1.49-13.11.15-6.05-4.63-11.07-10.67-11.22-.06,0-.12,0-.19,0h-.36c-9.73,0-13.87,7.88-13.87,18.74-.76,31.84,22.84,50.18,58.82,53.56,4.11.36,7.88.36,12.35.36,85.16,0,137.11-64.42,159.22-142.34,11.36-1.25,22.57-3.63,33.46-7.12,38.96-10.86,83.55-37.47,83.55-83.91"/>
  <g>
    <g>
      <path class="st1" d="M639.8,440.7c-3.04-1.13-7.88-6.75.36-22.48l19.1-40.09c.4-.64.2-1.49-.44-1.89-.44-.28-1.01-.28-1.45,0l-16.85,16.85c-7.88,8.24-21.29,31.48-23.97,35.95l-20.23,33.7c1.67.13,2.93,1.59,2.8,3.26-.02.29-.08.57-.19.84l-18.74,31.48c-4.5,7.88,3.74,13.11,4.87,11.22,29.23-47.2,46.44-43.46,46.44-43.46l9.73-22.84c.36-.76-.36-2.25-1.49-2.62"/>
      <path class="st1" d="M706.49,45.83c-167.64.03-303.51,135.94-303.49,303.58.01,64.78,20.74,127.85,59.17,180.01,9.78-4.44,18.29-11.27,24.73-19.86l56.57-72.29c1.16-1.52,2.71-2.69,4.5-3.38l8.61-3.74,92.92-118.01,13.47-10.49,27.71-38.6c.68-1.05,1.57-1.94,2.62-2.62l11.98-8.61c3-2.26,7.13-2.26,10.13,0l14.6,10.13c7.79,5.43,14.07,12.76,18.25,21.29l59,103.23c.88,2.01,2.49,3.62,4.5,4.5,11.62,5.63,18.25,6.75,33.7,23.24,7.12,7.48,37.84,41.94,80.9,95.53,6.16,8.7,14.57,15.57,24.33,19.86,99.44-134.96,70.65-324.98-64.31-424.42-52.13-38.41-115.17-59.14-179.91-59.17M484.71,366.16l-19.86-6.36-11.98,16.85v-20.59l-19.86-6.36,19.86-6.36v-20.74l11.98,16.85,19.86-6.36-11.98,16.88,11.98,16.18ZM480.21,433.95l-6.36,19.86-6.36-19.86h-20.53l16.85-11.98-6.36-19.86,16.85,11.98,16.85-11.98-6.36,19.86,16.85,11.98h-21.44ZM483.95,276.98l6.36,19.86-16.85-11.98-16.85,11.98,6.36-19.86-16.85-11.98h20.59l6.36-19.86,6.36,19.86h20.59l-16.06,11.98ZM517.41,232.39l-11.98-16.85-19.86,6.36,11.98-16.85-11.98-16.85,19.86,6.36,11.98-16.85v20.59l19.86,6.36-19.86,6.36v21.38ZM569.11,160.1l-6.57,19.89-6.36-19.86h-20.59l16.85-11.98-6.36-19.86,16.85,11.98,16.85-11.98-6.36,19.86,16.85,11.98-21.17-.03ZM634.29,126.64l-11.98,16.85v-20.59l-19.86-6.36,19.86-6.36v-20.59l11.98,16.85,19.86-6.36-11.98,16.85,11.98,16.85-19.86-7.15ZM717.08,107.91l6.36,19.86-16.94-11.98-16.88,12.17,6.36-19.86-16.85-11.98h20.59l6.39-19.86,6.36,19.86h20.59l-15.97,11.8ZM791.26,122.9v20.59l-11.98-16.85-19.86,6.36,11.98-16.85-11.98-16.85,19.86,6.36,11.98-16.85v20.89l19.86,6.36-19.86,6.84ZM928.37,332.76l19.86,6.36,11.98-16.85v20.59l19.86,6.36-19.86,6.36v20.59l-11.98-16.85-19.86,6.36,11.98-16.85-11.98-16.06ZM850.44,179.93l-6.36-19.86h-20.59l16.85-11.98-6.36-19.86,16.85,11.98,16.85-11.98-6.36,19.86,16.85,11.98h-20.62l-7.12,19.86ZM895.76,232.36v-20.59l-19.95-6.33,19.86-6.36v-20.59l11.98,16.85,19.86-6.36-11.98,16.85,11.98,16.85-19.86-6.36-11.89,16.03ZM933.23,264.97l6.36-19.86,6.36,19.86h20.59l-16.94,12.01,6.36,19.86-16.85-11.98-16.85,11.98,6.36-19.86-16.85-11.98,21.47-.03ZM945.76,433.95l-6.36,19.86-6.36-19.86h-20.59l16.85-11.98-6.36-19.86,16.85,11.98,16.85-11.98-6.36,19.86,16.85,11.98h-21.38Z"/>
      <path class="st1" d="M816.62,524.98c1.49-2.25,3.74-7.88-.76-18.74l-13.47-35.95c-1.89-4.5,2.25-7.48,4.87-4.5,0,0,25.49,29.23,31.84,41.58l12.35,20.59c10.86.76,40.45,1.49,69.31,1.49-2.93-2.85-5.57-5.99-7.88-9.37-48.66-60.83-79.78-94.28-80.17-94.28-5.8-7.25-13.44-12.81-22.11-16.12-1.13-.36-2.25-1.13-3.38-1.49v9.37c.01.69-.54,1.26-1.23,1.27-.4,0-.78-.18-1.02-.51l-71.93-126.25-.36-.36c-2.98-5.95-7.35-11.1-12.74-14.99l-7.12-4.87-34.09,79.08c4.13.05,7.44,3.45,7.38,7.58-.01,1-.23,2-.63,2.91l-31.48,72.99h29.23c11.18,0,22.24,2.17,32.6,6.36l7.48,3.04s-23.24,47.57-23.24,72.66c.08,4.55.71,9.08,1.89,13.47h53.19l-2.62-14.99c.76-.36,32.6,7.12,64.05,10.13"/>
    </g>
    <path class="st0" d="M1221.92,627.99h-29.96l-6.75,15.72-11.62,26.58h-13.87l-4.11,9.12h14.6l-17.64,38.57c-12.35,27.37-31.84,53.95-43.07,53.95-2.62,0-4.11-1.13-4.11-3.38s.76-4.87,3.38-11.62c3.38-8.24,9.37-20.23,13.47-28.83,6.36-12.74,16.12-32.6,16.12-42.34s-6.36-17.61-18.25-17.61c-13.87,0-26.22,8.24-37.84,20.23l7.48-17.97h-28.1l-22.84,52.43c-9.37,18.25-28.1,49.06-39.72,49.06-2.62,0-3.38-1.49-3.38-4.11.28-2.21.92-4.35,1.89-6.36,1.13-2.25,14.6-34.46,14.6-34.46l25.09-56.94h-30.41l-24.33,55.45c-7.48,17.24-26.58,46.44-38.6,46.44-1.92.32-3.74-.98-4.06-2.9-.03-.16-.04-.32-.05-.48v-1.13c.62-4.33,2.02-8.51,4.11-12.35l12.74-28.1,26.22-56.94h-30.41l-6.08,13.11c-4.5,8.61-11.98,19.1-23.97,19.1-5.63,0-8.61-2.25-9.73-4.5-1.89-19.1-13.87-29.59-31.84-29.59-25.09,0-42.58,14.6-54.32,32.6-7.8,12.35-13.85,25.71-17.97,39.72-10.86,17.61-22.11,31.48-31.08,31.48-2.25,0-3.74-1.13-3.74-4.11.8-4.28,2.18-8.44,4.11-12.35l19.86-41.94c5.63-13.11,9.37-21.29,9.37-29.96s-6.36-15.21-16.48-15.21c-14.23,0-29.59,8.24-41.94,21.72.31-2.1.43-4.23.36-6.36,0-10.13-4.87-15.21-15.21-15.21-13.11,0-26.58,7.88-38.6,21.72l7.88-19.47h-27.37l-23.24,52.43c-10.86,24.73-28.83,49.06-38.6,49.06-2.25,0-3.74-1.13-3.74-4.11,0-4.87,5.23-16.48,7.12-21.29l30.72-69.68c2.25-5.23-12.35-8.61-31.08-8.61s-38.96,9.37-53.19,21.72c-10.13,8.61-17.61,12.74-21.29,12.74-1.89,0-2.62-1.13-2.62-2.25,0-4.11,10.13-16.12,10.13-25.49,0-4.11-2.25-7.12-7.88-7.12-10.86,0-23.97,10.49-33.46,21.29l7.88-19.1h-26.95l-23.24,52.43c-10.86,24.73-29.23,50.58-39.33,50.58-2.25,0-3.74-1.13-3.74-4.11,0-4.87,4.87-16.12,7.88-22.11l30.72-69.68c2.25-5.23-12.35-8.61-31.08-8.61-27.71,0-54.75,18.74-68.92,37.84-15.72,20.59-26.58,42.58-26.58,60.83-.36,14.6,7.12,23.6,22.11,23.6,16.85,0,30.41-13.11,37.84-23.24-.36,1.89-.76,4.11-1.13,6.08,0,10.13,4.11,17.24,16.12,17.24,10.86,0,25.09-9.12,36.35-23.24l-9.37,21.29h29.23l28.83-65.18c9.37-21.29,20.23-32.21,23.24-32.21,1.13,0,1.49.36,1.49,1.13,0,2.25-4.5,8.24-4.5,13.87s3.04,9.73,10.86,9.73c7.03-.51,13.77-2.97,19.47-7.12-14.6,19.86-24.73,40.85-24.73,58.06-.36,14.6,7.12,23.6,22.11,23.6s30.41-14.99,38.6-25.09c-.32,2.36-.44,4.74-.36,7.12,0,9.73,5.63,17.97,16.85,17.97,12.35,0,22.48-7.88,34.82-22.84l-9.37,20.99h30.08l27.37-62.2c11.98-26.98,28.1-41.58,36.35-41.58,2.04-.23,3.87,1.24,4.1,3.28,0,.03,0,.06,0,.1v.76c-.3,3.01-1.19,5.94-2.62,8.61l-39.33,91.03h30.72l28.1-63.32c11.98-27.37,25.09-40.45,35.22-40.45,3.04,0,4.11,1.49,4.11,4.87-.29,3.5-1.18,6.92-2.62,10.13l-27.13,56.66c-2.59,5.54-4.11,11.51-4.5,17.61,0,8.61,4.87,16.48,18.25,16.48,17.61,0,30.72-13.11,45.62-32.97v4.11c1.13,15.72,10.13,29.59,33.46,29.59,27.37,0,49.45-19.1,62.93-49.06,5.05-10.63,8.34-22.01,9.73-33.7,3,1.55,6.37,2.21,9.73,1.89,4.58-.01,9.09-1.17,13.11-3.38l-4.87,10.13c-5.63,11.62-11.62,24.33-16.12,34.82-3.05,6.34-4.82,13.21-5.23,20.23,0,10.86,6.08,18.25,18.25,18.25s28.83-11.62,40.85-27.71h.36c-.74,3.32-1.12,6.72-1.13,10.13,0,9.12,2.62,17.61,15.21,17.61,14.6,0,25.85-10.49,36.71-23.6l-9.37,20.99h30.41l24.33-54.75c13.87-31.08,27.37-49.45,40.09-49.45,2.13-.14,3.96,1.48,4.1,3.61,0,.04,0,.09,0,.13v.76c0,5.23-7.48,19.47-14.23,33.7-6.36,13.11-10.86,22.84-14.23,30.72-3.05,6.46-4.82,13.46-5.23,20.59,0,9.37,5.23,16.85,16.85,16.85,17.61,0,35.22-16.85,44.59-29.59-2.24,6.12-3.38,12.58-3.38,19.1,0,17.61,10.49,26.22,25.09,26.22,9.84-.2,19.38-3.39,27.37-9.12,11.62-7.88,20.59-19.86,28.47-31.08l-5.23-4.87c-6.48,9.79-14.45,18.51-23.6,25.85-4.29,3.6-9.62,5.73-15.21,6.08-6.36,0-10.13-3.38-10.13-11.22s3.74-18.74,9.37-33.46c.36-.36,8.61-18.74,16.12-36.35,6.36-14.99,13.11-29.59,14.23-32.6h19.86l4.11-9.12h-19.47l16.58-42.67ZM370.93,771.85c-4.11,0-7.12-1.49-7.12-7.12.36-14.6,12.35-40.85,27.71-61.8,10.86-14.6,24.73-25.09,39.72-25.09l-19.1,42.34c-14.23,31.84-29.59,51.7-41.21,51.7M557.49,771.88c-3.59.52-6.92-1.97-7.44-5.56-.07-.52-.09-1.04-.04-1.56.36-14.6,12.35-40.85,27.71-61.8,10.86-14.6,24.73-25.09,39.72-25.09l-19.1,42.34c-14.23,32.6-28.83,51.7-40.85,51.7M889.01,689.49c-.76,16.12-14.99,55.45-31.84,78.65-6.75,9.37-12.35,12.35-17.61,12.35-7.12,0-9.12-5.63-7.88-14.23,1.49-14.6,13.87-49.06,30.72-72.66,7.88-10.86,13.11-15.21,19.1-15.21s7.48,4.87,7.48,11.22"/>
    <g>
      <path class="st0" d="M270.7,885.17v-1.6c3.67-.46,4.2-.92,3.44-3.15-.76-2.23-1.92-5.32-3.2-8.81h-12.41c-.93,2.57-1.81,4.98-2.56,7.38-1.28,3.6-.76,4.18,3.61,4.58v1.6h-12.65v-1.6c3.67-.51,4.49-.86,6.53-5.89l12.06-30.03,1.81-.51c3.61,9.84,7.52,20.7,11.25,30.66,1.86,4.92,2.62,5.43,6.41,5.78v1.6h-14.28ZM264.99,854.57h-.12c-1.86,4.92-3.73,9.89-5.48,14.58h10.72l-5.13-14.58Z"/>
      <path class="st0" d="M335.48,856.69c-1.05-3.66-2.56-7.61-7.63-7.61-4.49,0-6.47,3.2-6.47,6.29,0,4.17,2.8,6.12,7.4,8.46,4.55,2.29,10.08,4.98,10.08,11.38,0,6-5.19,10.81-12.94,10.81-2.39,0-4.25-.46-5.71-.86-1.46-.51-2.33-.92-2.86-1.2-.47-1.2-1.22-6.12-1.57-8.87l1.69-.4c.93,3.49,3.55,9.27,9.56,9.27,4.37,0,6.99-2.69,6.99-6.86s-3.21-6.23-7.58-8.52c-3.73-1.95-9.62-4.8-9.62-11.27,0-5.49,4.49-10.18,12-10.18,2.68,0,5.13.63,7.34,1.32.23,2.06.52,4.29.99,7.89l-1.69.34Z"/>
      <path class="st0" d="M377.64,885.17c-4.49-4.98-9.21-10.58-14.45-16.64-1.34-1.54-2.16-1.77-3.15-1.6v10.87c0,5.03.58,5.43,5.36,5.78v1.6h-15.15v-1.6c4.43-.34,4.95-.74,4.95-5.78v-22.36c0-5.2-.52-5.49-5.13-5.83v-1.6h15.03v1.6c-4.49.34-5.07.74-5.07,5.83v10.01c1.28-.34,2.45-1.14,4.08-2.63,3.2-3.03,7.17-6.98,9.79-10.12,1.69-2.06,1.69-2.63-.99-2.92l-1.28-.17v-1.6h13.99v1.6c-4.43.4-5.77.97-9.5,4.29-2.21,2-6.35,6.06-10.31,10.01,4.43,5.38,10.78,12.47,13.69,15.56,3.09,3.26,4.25,3.78,7.11,4.12v1.6h-8.97Z"/>
      <path class="st0" d="M429.68,849.6c-4.02.46-4.66,1.03-6.93,4.52-2.62,4.18-4.6,7.49-7.4,12.53-.76,1.49-.93,2.12-.93,3.6v7.78c0,4.8.47,5.2,5.83,5.55v1.6h-16.49v-1.6c5.19-.34,5.71-.69,5.71-5.55v-7.61c0-1.14-.23-1.66-1.22-3.37-2.04-3.55-4.14-7.26-7.34-12.58-2.33-3.89-2.97-4.52-6.47-4.86v-1.6h13.93v1.6c-4.14.51-4.02,1.2-2.91,3.09,2.45,4.58,5.3,9.27,7.81,13.56,2.16-3.78,5.3-9.38,6.94-12.87,1.34-2.86,1.17-3.32-3.38-3.77v-1.6h12.88v1.6Z"/>
      <path class="st0" d="M455.91,847.99c7.4,0,12.88,1.49,16.49,4.86,2.86,2.75,4.9,6.92,4.9,12.3,0,6.86-2.68,11.95-7.17,15.27-4.37,3.32-10.14,4.75-17.31,4.75h-13.81v-1.54c5.01-.34,5.48-.69,5.48-5.55v-22.94c0-4.92-.47-5.15-4.95-5.49v-1.66h16.38ZM449.5,877.68c0,4.35,1.92,5.43,6.18,5.43,10.9,0,15.91-8.01,15.91-17.16,0-5.89-2.21-10.98-6.88-13.67-2.62-1.66-6-2.35-9.91-2.35-2.45,0-3.96.29-4.55.69-.58.4-.76,1.03-.76,3.26v23.79Z"/>
      <path class="st0" d="M509.35,885.17v-1.6c3.67-.46,4.2-.92,3.44-3.15-.76-2.23-1.92-5.32-3.21-8.81h-12.41c-.93,2.57-1.81,4.98-2.56,7.38-1.28,3.6-.76,4.18,3.61,4.58v1.6h-12.65v-1.6c3.67-.51,4.49-.86,6.53-5.89l12.06-30.03,1.81-.51c3.61,9.84,7.52,20.7,11.25,30.66,1.86,4.92,2.62,5.43,6.41,5.78v1.6h-14.28ZM503.64,854.57h-.12c-1.86,4.92-3.73,9.89-5.48,14.58h10.72l-5.13-14.58Z"/>
      <path class="st0" d="M573.17,849.6c-3.26.17-4.66.91-4.9,3.43-.23,1.72-.35,4.29-.35,9.61v23.05h-1.81l-24.83-29.97h-.12v14.36c0,5.26.18,8.01.35,9.67.29,2.92,1.63,3.6,5.59,3.83v1.6h-13.81v-1.6c3.38-.17,4.84-.92,5.13-3.72.17-1.77.35-4.52.35-9.78v-12.58c0-4.17-.12-4.4-1.17-5.78-1.17-1.43-2.45-1.89-5.19-2.12v-1.6h8.62l24.3,28.71h.17v-14.07c0-5.26-.23-7.89-.41-9.49-.29-2.57-1.69-3.32-5.71-3.55v-1.6h13.75v1.6Z"/>
      <path class="st0" d="M620.91,875.73c-.82,2.63-2.27,6.86-3.32,8.75-1.63.4-6.53,1.54-10.72,1.54-14.51,0-20.86-9.84-20.86-18.93,0-12.01,9.44-19.96,22.44-19.96,4.72,0,8.68,1.26,10.31,1.54.47,3.26.82,5.55,1.17,8.64l-1.75.4c-1.52-6.06-5.01-8.52-11.31-8.52-9.73,0-14.92,8.06-14.92,16.76,0,10.7,6.41,18.02,15.27,18.02,5.94,0,9.09-3.15,12-8.87l1.69.63Z"/>
      <path class="st0" d="M659.7,876.13c-.35,1.89-1.52,7.26-2.04,9.04h-28.09v-1.6c5.3-.4,5.77-.86,5.77-5.49v-22.76c0-5.15-.47-5.32-5.01-5.72v-1.6h25.99c0,1.43.29,5.32.47,8.24l-1.69.29c-.52-2.4-1.11-3.66-1.86-4.92-.82-1.2-2.39-1.6-6.58-1.6h-4.43c-1.81,0-1.92.11-1.92,1.83v12.98h5.48c5.24,0,5.54-.46,6.29-4.29h1.69v10.98h-1.69c-.76-4.12-1.17-4.46-6.24-4.46h-5.54v10.81c0,2.69.35,3.89,1.4,4.63,1.11.69,3.15.74,6.06.74,4.43,0,6.06-.46,7.34-1.95.99-1.14,2.1-3.09,2.86-5.38l1.75.23Z"/>
      <path class="st0" d="M725.69,875.73c-.82,2.63-2.27,6.86-3.32,8.75-1.63.4-6.53,1.54-10.72,1.54-14.51,0-20.86-9.84-20.86-18.93,0-12.01,9.44-19.96,22.44-19.96,4.72,0,8.68,1.26,10.31,1.54.47,3.26.82,5.55,1.17,8.64l-1.75.4c-1.52-6.06-5.01-8.52-11.31-8.52-9.73,0-14.92,8.06-14.92,16.76,0,10.7,6.41,18.02,15.27,18.02,5.94,0,9.09-3.15,12.01-8.87l1.69.63Z"/>
      <path class="st0" d="M775.13,866.12c0,12.35-8.8,19.9-19.46,19.9s-18.94-8.06-18.94-19.05c0-10.3,7.34-19.85,19.58-19.85,9.91,0,18.82,7.55,18.82,18.99ZM742.67,865.38c0,10.75,6,18.59,14.22,18.59,6.47,0,12.3-5.32,12.3-16.3,0-12.07-6.41-18.47-14.04-18.47-6.53,0-12.47,5.49-12.47,16.19Z"/>
      <path class="st0" d="M821.92,885.63c-.7,0-1.34,0-2.04-.06-4.37-.23-6.82-1.49-9.44-5.2-2.04-2.8-4.14-6.35-5.89-9.15-.99-1.6-1.98-2.29-5.01-2.29h-1.86v9.09c0,4.86.52,5.2,5.19,5.55v1.6h-15.33v-1.6c4.78-.34,5.3-.69,5.3-5.55v-22.99c0-4.86-.47-5.03-5.01-5.43v-1.6h14.45c4.25,0,7.11.51,9.32,1.94,2.33,1.49,3.85,4.06,3.85,7.49,0,4.92-3.09,7.95-7.4,9.78.99,1.89,3.44,5.72,5.19,8.29,2.1,2.97,3.32,4.46,4.72,5.95,1.57,1.72,2.91,2.35,4.2,2.69l-.23,1.49ZM800.47,867.04c2.97,0,4.89-.46,6.35-1.6,2.27-1.72,3.21-4,3.21-7.09,0-6.18-4.14-8.47-8.57-8.47-1.69,0-2.68.23-3.15.57-.41.29-.64.97-.64,2.52v14.07h2.8Z"/>
      <path class="st0" d="M844.94,847.99c4.14,0,7.46.69,9.79,2.4,2.27,1.66,3.79,4.29,3.79,8.06,0,7.38-5.71,10.98-11.36,11.73-.87.06-1.98.06-2.62,0l-4.31-1.09v8.98c0,4.86.53,5.15,5.77,5.49v1.6h-15.79v-1.6c4.66-.34,5.13-.8,5.13-5.55v-22.88c0-5.03-.47-5.26-4.78-5.55v-1.6h14.39ZM840.22,867.21c.76.29,2.33.69,4.25.69,3.79,0,8.45-2,8.45-9.27,0-6.18-4.02-8.81-8.8-8.81-1.63,0-2.86.29-3.26.69-.47.4-.64,1.09-.64,2.69v14.01Z"/>
      <path class="st0" d="M908.11,866.12c0,12.35-8.8,19.9-19.46,19.9s-18.94-8.06-18.94-19.05c0-10.3,7.34-19.85,19.58-19.85,9.91,0,18.82,7.55,18.82,18.99ZM875.65,865.38c0,10.75,6,18.59,14.22,18.59,6.47,0,12.3-5.32,12.3-16.3,0-12.07-6.41-18.47-14.04-18.47-6.53,0-12.47,5.49-12.47,16.19Z"/>
      <path class="st0" d="M954.02,885.63c-.7,0-1.34,0-2.04-.06-4.37-.23-6.82-1.49-9.44-5.2-2.04-2.8-4.14-6.35-5.89-9.15-.99-1.6-1.98-2.29-5.01-2.29h-1.86v9.09c0,4.86.52,5.2,5.19,5.55v1.6h-15.33v-1.6c4.78-.34,5.3-.69,5.3-5.55v-22.99c0-4.86-.47-5.03-5.01-5.43v-1.6h14.45c4.25,0,7.11.51,9.32,1.94,2.33,1.49,3.85,4.06,3.85,7.49,0,4.92-3.09,7.95-7.4,9.78.99,1.89,3.44,5.72,5.19,8.29,2.1,2.97,3.32,4.46,4.72,5.95,1.57,1.72,2.91,2.35,4.2,2.69l-.23,1.49ZM932.57,867.04c2.97,0,4.89-.46,6.35-1.6,2.27-1.72,3.21-4,3.21-7.09,0-6.18-4.14-8.47-8.57-8.47-1.69,0-2.68.23-3.15.57-.41.29-.64.97-.64,2.52v14.07h2.8Z"/>
      <path class="st0" d="M984.64,885.17v-1.6c3.67-.46,4.2-.92,3.44-3.15-.76-2.23-1.92-5.32-3.21-8.81h-12.41c-.93,2.57-1.81,4.98-2.56,7.38-1.28,3.6-.76,4.18,3.61,4.58v1.6h-12.65v-1.6c3.67-.51,4.49-.86,6.53-5.89l12.06-30.03,1.81-.51c3.61,9.84,7.52,20.7,11.25,30.66,1.87,4.92,2.62,5.43,6.41,5.78v1.6h-14.28ZM978.93,854.57h-.12c-1.86,4.92-3.73,9.89-5.48,14.58h10.72l-5.13-14.58Z"/>
      <path class="st0" d="M1034.55,856.86c-.64-2.75-1.17-4.18-1.86-5.09-.93-1.37-1.92-1.77-6.29-1.77h-4.14v28.14c0,4.52.47,5.09,6,5.43v1.6h-16.72v-1.6c5.3-.34,5.77-.92,5.77-5.43v-28.14h-3.61c-4.84,0-6,.46-6.76,1.77-.7.97-1.17,2.57-1.86,5.09h-1.69c.29-3.43.58-7.15.7-10.3h1.17c.82,1.32,1.57,1.43,3.21,1.43h23.02c1.57,0,2.04-.34,2.97-1.43h1.22c0,2.63.29,6.81.58,10.12l-1.69.17Z"/>
      <path class="st0" d="M1047.53,885.17v-1.6c4.78-.34,5.24-.69,5.24-5.55v-22.88c0-4.86-.47-5.2-5.24-5.55v-1.6h15.44v1.6c-4.78.34-5.24.69-5.24,5.55v22.88c0,4.92.47,5.2,5.24,5.55v1.6h-15.44Z"/>
      <path class="st0" d="M1110.8,866.12c0,12.35-8.8,19.9-19.46,19.9s-18.94-8.06-18.94-19.05c0-10.3,7.34-19.85,19.58-19.85,9.91,0,18.82,7.55,18.82,18.99ZM1078.34,865.38c0,10.75,6,18.59,14.22,18.59,6.47,0,12.3-5.32,12.3-16.3,0-12.07-6.41-18.47-14.04-18.47-6.53,0-12.47,5.49-12.47,16.19Z"/>
      <path class="st0" d="M1162.45,849.6c-3.26.17-4.66.91-4.9,3.43-.23,1.72-.35,4.29-.35,9.61v23.05h-1.81l-24.82-29.97h-.12v14.36c0,5.26.17,8.01.35,9.67.29,2.92,1.63,3.6,5.59,3.83v1.6h-13.81v-1.6c3.38-.17,4.84-.92,5.13-3.72.18-1.77.35-4.52.35-9.78v-12.58c0-4.17-.12-4.4-1.17-5.78-1.17-1.43-2.45-1.89-5.19-2.12v-1.6h8.63l24.3,28.71h.18v-14.07c0-5.26-.23-7.89-.41-9.49-.29-2.57-1.69-3.32-5.71-3.55v-1.6h13.75v1.6Z"/>
    </g>
    <rect class="st0" x="249.49" y="826.52" width="916.83" height="3.21"/>
  </g>
</svg>