<?xml version="1.0" encoding="UTF-8" standalone="no"?>
<svg
   xmlns:dc="http://purl.org/dc/elements/1.1/"
   xmlns:cc="http://creativecommons.org/ns#"
   xmlns:rdf="http://www.w3.org/1999/02/22-rdf-syntax-ns#"
   xmlns:svg="http://www.w3.org/2000/svg"
   xmlns="http://www.w3.org/2000/svg"
   xmlns:xlink="http://www.w3.org/1999/xlink"
   xmlns:sodipodi="http://sodipodi.sourceforge.net/DTD/sodipodi-0.dtd"
   xmlns:inkscape="http://www.inkscape.org/namespaces/inkscape"
   id="svg2"
   version="1.1"
   inkscape:version="1.0.2 (e86c870879, 2021-01-15)"
   width="512"
   height="368"
   xml:space="preserve"
   sodipodi:docname="Shaka logo and text.svg"
   inkscape:export-filename="/usr/local/google/home/tinskip/Documents/Shaka6.png"
   inkscape:export-xdpi="2400"
   inkscape:export-ydpi="2400"
   viewBox="18 18 250 177.42866"><metadata
     id="metadata8"><rdf:RDF><cc:Work
         rdf:about=""><dc:format>image/svg+xml</dc:format><dc:type
           rdf:resource="http://purl.org/dc/dcmitype/StillImage" /><dc:title></dc:title></cc:Work></rdf:RDF></metadata><defs
     id="defs6"><linearGradient
       inkscape:collect="always"
       id="linearGradient3774"><stop
         style="stop-color:#141414;stop-opacity:1;"
         offset="0"
         id="stop3776" /><stop
         style="stop-color:#141414;stop-opacity:0;"
         offset="1"
         id="stop3778" /></linearGradient><clipPath
       clipPathUnits="userSpaceOnUse"
       id="clipPath18"><path
         d="m 619.969,0 h -80.114 l -26.066,26.0664 v -6.6406 c -8.047,5.625 -17.812,8.9258 -28.34,8.9258 -15.703,0 -29.863,-7.5391 -38.984,-19.14066 -9.141,11.60156 -23.281,19.14066 -38.985,19.14066 -15.8,0 -29.882,-7.4219 -38.964,-18.96488 -9.098,11.54298 -23.18,18.96488 -38.961,18.96488 -19.559,0 -36.7,-11.6797 -44.75,-28.3516 h -61.578 v 46.0664 c 0,80.2346 65.058,145.2736 145.289,145.2736 v 0 c 40.097,0 76.425,-16.25 102.714,-42.539 L 618.887,1.14453 C 619.258,0.769531 619.617,0.390625 619.969,0 M 504.164,0 h -37.281 c 4.992,4.39062 11.496,7.10156 18.566,7.10156 7.16,0 13.719,-2.6875 18.715,-7.10156 m -78.137,0 h -37.261 c 4.996,4.41406 11.554,7.10156 18.714,7.10156 7.063,0 13.559,-2.71094 18.547,-7.10156 m -77.773,0 h -37.266 c 4.992,4.39062 11.496,7.10156 18.567,7.10156 7.152,0 13.703,-2.6875 18.699,-7.10156"
         id="path20"
         inkscape:connector-curvature="0" /></clipPath><linearGradient
       x1="0"
       y1="0"
       x2="1"
       y2="0"
       gradientUnits="userSpaceOnUse"
       gradientTransform="matrix(-1.86e-6,42.5195,42.5195,1.86e-6,42.52,-23.3859)"
       spreadMethod="pad"
       id="linearGradient22"><stop
         style="stop-opacity:1;stop-color:#ffffff"
         offset="0"
         id="stop24" /><stop
         style="stop-opacity:1;stop-color:#cac9c8"
         offset="1"
         id="stop26" /></linearGradient><linearGradient
       inkscape:collect="always"
       xlink:href="#linearGradient3774"
       id="linearGradient3780"
       x1="-456.65259"
       y1="925.34265"
       x2="1284.1677"
       y2="925.34265"
       gradientUnits="userSpaceOnUse" /></defs><sodipodi:namedview
     pagecolor="#ffffff"
     bordercolor="#666666"
     borderopacity="1"
     objecttolerance="10"
     gridtolerance="10"
     guidetolerance="10"
     inkscape:pageopacity="1"
     inkscape:pageshadow="2"
     inkscape:window-width="1162"
     inkscape:window-height="720"
     id="namedview4"
     showgrid="false"
     fit-margin-top="20"
     fit-margin-left="20"
     fit-margin-right="20"
     fit-margin-bottom="20"
     inkscape:zoom="0.88867188"
     inkscape:cx="256"
     inkscape:cy="256"
     inkscape:window-x="19"
     inkscape:window-y="13"
     inkscape:window-maximized="0"
     inkscape:current-layer="g12"
     showguides="true"
     inkscape:guide-bbox="true"
     inkscape:document-rotation="0" /><g
     id="g10"
     inkscape:groupmode="layer"
     inkscape:label="ink_ext_XXXXXX"
     transform="matrix(1.25,0,0,-1.25,93.464278,166.71861)"><g
       id="g12"
       transform="scale(0.1)"><g
   id="g4005"
   transform="matrix(1.5096071,0.98035027,-0.98035027,1.5096071,85.244599,237.95608)"><path
     inkscape:connector-curvature="0"
     id="path3909-4-7"
     d="M 180.7544,0.197768 V -100.31677 c -0.009,-0.49751 0,-1.00102 0,-1.50021 0,-56.04971 58.37201,-102.26479 126.21468,-102.26479 h 347.19881 c 67.93185,0 126.21469,46.21508 126.21469,102.26479 0,56.19036 -56.71975,102.014748 -126.21469,102.014748 H 397.40125 306.96908 Z"
     style="fill:#5294d6;fill-opacity:1;fill-rule:evenodd;stroke:#5294d6;stroke-width:0.402382;stroke-miterlimit:4;stroke-dasharray:none;stroke-opacity:1" /><path
     inkscape:connector-curvature="0"
     id="path3909-4"
     d="m -151.11088,411.67313 c 0,59.8934 36.46578,111.4165 80.712521,111.4165 44.35774,0 80.59868,-50.14313 80.59868,-111.4165 V 105.208 c 0,-61.351989 -36.24094,-111.495149 -80.59868,-111.495149 -44.246741,0 -80.712521,51.523134 -80.712521,111.495149 z"
     style="fill:#5294d6;fill-opacity:1;fill-rule:evenodd;stroke:#5294d6;stroke-width:0.334503;stroke-opacity:1" /><path
     inkscape:connector-curvature="0"
     id="path3909-2-5"
     d="m 350.30049,228.78817 c 0,50.52991 38.10219,93.99812 84.33452,93.99812 46.3483,0 84.21557,-42.30398 84.21557,-93.99812 V -29.76539 c 0,-51.76044 -37.86727,-94.06432 -84.21557,-94.06432 -46.23233,0 -84.33452,43.46811 -84.33452,94.06432 z"
     style="fill:#3db94b;fill-opacity:1;fill-rule:evenodd;stroke:#5294d6;stroke-width:0.314063;stroke-opacity:1" /><path
     inkscape:connector-curvature="0"
     id="path3909-2-5-2"
     d="m 180.7504,228.78809 c 0,50.5299 38.10219,93.9982 84.33452,93.9982 46.34829,0 84.21557,-42.304 84.21557,-93.9982 v -258.5535 c 0,-51.7605 -37.86728,-94.0643 -84.21557,-94.0643 -46.23233,0 -84.33452,43.4681 -84.33452,94.0643 z"
     style="fill:#fbbc09;fill-opacity:1;fill-rule:evenodd;stroke:#5294d6;stroke-width:0.314063;stroke-opacity:1" /><path
     inkscape:connector-curvature="0"
     id="path3909-2-5-7"
     d="m 11.200321,228.78809 c 0,50.5299 38.10219,93.9982 84.33452,93.9982 46.348279,0 84.215559,-42.304 84.215559,-93.9982 v -258.5535 c 0,-51.7605 -37.86728,-94.0643 -84.215559,-94.0643 -46.23233,0 -84.33452,43.4681 -84.33452,94.0643 z"
     style="fill:#ef3232;fill-opacity:1;fill-rule:evenodd;stroke:#5294d6;stroke-width:0.314063;stroke-opacity:1" /></g>
    <path
   d="m 109.36097,-149.36722 q 0,-35.25 -25.875,-56.625 -26.25,-21 -63.75,-21 -33.375,0 -58.875,19.5 -25.5,19.5 -35.25,53.25 l 33,13.5 q 3.375,-12 9.375,-21.75 6,-9.75 13.875,-16.875 8.25,-6.75 18,-10.875 9.75,-3.75 20.625,-3.75 23.625,0 38.625,12 15,12.375 15,32.625 0,16.875 -12.375,28.875 -11.625,11.625 -43.5,22.5 -32.25,11.625 -40.125,15.75 -42.75,21.75 -42.75,64.125 0,29.625 23.625,50.625 24,21 58.875,21 30.75,0 53.25,-15.75 22.5,-15.375 30,-38.625 l -32.25,-13.5 q -4.5,15 -18,24.75 -13.125,10.125 -32.25,10.125 -20.25,0 -34.125,-11.25 -13.875,-10.5 -13.875,-27.375 0,-13.875 10.875,-24 12,-10.125 52.125,-24 40.875,-13.875 58.125,-34.125 17.625,-19.875 17.625,-49.125 z"
   style="font-style:normal;font-variant:normal;font-weight:normal;font-stretch:normal;font-size:96px;line-height:1.25;font-family:'Product Sans';-inkscape-font-specification:'Product Sans';letter-spacing:0px;word-spacing:0px;fill:#000000;fill-opacity:1;stroke:none;stroke-width:3.90625"
   id="path3759" /><path
   d="m 144.88636,47.50778 h 34.5 v -84.75 l -1.5,-25.5 h 1.5 q 7.875,13.5 24,22.5 16.5,9 34.125,9 33.75,0 51.75,-19.5 18.375,-19.125 18.375,-54.75 v -115.5 h -34.5 v 108.75 q 0,49.5 -43.875,49.5 -21,0 -35.625,-17.625 -14.25,-17.25 -14.25,-40.5 v -100.125 h -34.5 z"
   style="font-style:normal;font-variant:normal;font-weight:normal;font-stretch:normal;font-size:96px;line-height:1.25;font-family:'Product Sans';-inkscape-font-specification:'Product Sans';letter-spacing:0px;word-spacing:0px;fill:#000000;fill-opacity:1;stroke:none;stroke-width:3.90625"
   id="path3761" /><path
   d="m 371.42738,-164.74222 q 0,-13.5 11.25,-22.5 11.625,-9 27,-9 21.75,0 38.625,16.125 17.25,16.125 17.25,37.875 -16.125,12.75 -45,12.75 -21,0 -35.25,-10.125 -13.875,-10.125 -13.875,-25.125 z m 44.625,133.5 q 38.25,0 60.375,-20.625 22.125,-20.25 22.125,-55.875 v -113.25 h -33 v 25.5 h -1.5 q -21.375,-31.5 -57,-31.5 -30.375,0 -51,18 -20.25,18 -20.25,45 0,28.5 21.375,45.375 21.75,16.875 57.75,16.875 30.75,0 50.625,-11.25 v 7.875 q 0,18 -14.25,30.375 -14.25,12.75 -33.375,12.75 -28.875,0 -45.75,-24.375 l -30.375,19.125 q 25.125,36 74.25,36 z"
   style="font-style:normal;font-variant:normal;font-weight:normal;font-stretch:normal;font-size:96px;line-height:1.25;font-family:'Product Sans';-inkscape-font-specification:'Product Sans';letter-spacing:0px;word-spacing:0px;fill:#000000;fill-opacity:1;stroke:none;stroke-width:3.90625"
   id="path3763" /><path
   d="m 699.08949,-220.99222 h -41.625 l -57.375,86.625 -28.125,-27.75 v -58.875 h -34.5 v 268.5 h 34.5 v -165.375 l 79.5,80.625 h 44.25 v -1.5 l -71.625,-71.25 75,-109.5 z"
   style="font-style:normal;font-variant:normal;font-weight:normal;font-stretch:normal;font-size:96px;line-height:1.25;font-family:'Product Sans';-inkscape-font-specification:'Product Sans';letter-spacing:0px;word-spacing:0px;fill:#000000;fill-opacity:1;stroke:none;stroke-width:3.90625"
   id="path3765" /><path
   d="m 739.83558,-164.74222 q 0,-13.5 11.25,-22.5 11.625,-9 27,-9 21.75,0 38.625,16.125 17.25,16.125 17.25,37.875 -16.125,12.75 -45,12.75 -21,0 -35.25,-10.125 -13.875,-10.125 -13.875,-25.125 z m 44.625,133.5 q 38.25,0 60.375,-20.625 22.125,-20.25 22.125,-55.875 v -113.25 h -33 v 25.5 h -1.5 q -21.375,-31.5 -57,-31.5 -30.375,0 -51,18 -20.25,18 -20.25,45 0,28.5 21.375,45.375 21.75,16.875 57.75,16.875 30.75,0 50.625,-11.25 v 7.875 q 0,18 -14.25,30.375 -14.25,12.75 -33.375,12.75 -28.875,0 -45.75,-24.375 l -30.375,19.125 q 25.125,36 74.25,36 z"
   style="font-style:normal;font-variant:normal;font-weight:normal;font-stretch:normal;font-size:96px;line-height:1.25;font-family:'Product Sans';-inkscape-font-specification:'Product Sans';letter-spacing:0px;word-spacing:0px;fill:#000000;fill-opacity:1;stroke:none;stroke-width:3.90625"
   id="path3767" /></g></g></svg>
